<?xml version="1.0" encoding="UTF-8"?>
<!-- Generator: Adobe Illustrator 27.8.0, SVG Export Plug-In . SVG Version: 6.00 Build 0)  -->
<svg xmlns="http://www.w3.org/2000/svg" xmlns:xlink="http://www.w3.org/1999/xlink" version="1.1" id="Layer_1" x="0px" y="0px" viewBox="0 0 300 107" style="enable-background:new 0 0 300 107;" xml:space="preserve">
<style type="text/css">
	.st0{fill:#444444;}
	.st1{fill:#FFFFFF;}
	.st2{fill:#D7D8D8;}
	.st3{fill-rule:evenodd;clip-rule:evenodd;fill:#FFFFFF;}
	.st4{fill:#282827;}
	.st5{fill:#E95E26;}
	.st6{fill:#E04427;}
	.st7{fill-rule:evenodd;clip-rule:evenodd;fill:#EF4923;}
	.st8{fill:#211E1F;}
	.st9{fill:#303030;}
	.st10{display:none;fill:none;stroke:#303030;stroke-width:0.5;stroke-miterlimit:10;}
</style>
<line class="st10" x1="-41.1" y1="74.3" x2="291.6" y2="74.3"></line>
<g>
	<g>
		<g>
			<g>
				<path class="st1" d="M8.5,16H35c2.3,0,4.3,0.7,5.9,2.1c1.6,1.4,2.5,3.2,2.5,5.2v30.6h-8V41.1H8.1v12.7H0.2V23.3      c0-2,0.8-3.8,2.4-5.2C4.2,16.7,6.2,16,8.5,16z M8.1,34.2h27.3V23.3c0-0.2-0.1-0.4-0.4-0.4H8.5c-0.3,0-0.4,0.1-0.4,0.4V34.2z"></path>
				<path class="st1" d="M103,23.4v10.2c0,2-0.8,3.7-2.5,5.2c-1.6,1.4-3.6,2.2-5.9,2.2h-2.3L103,52.1v1.8h-8.6l-12.5-13h-14h-0.2v13      h-7.9V16.1h34.8c2.3,0,4.3,0.7,5.9,2.2C102.2,19.6,103,21.4,103,23.4z M68.1,33.9h26.5c0.3,0,0.4-0.1,0.4-0.4V23.4      c0-0.2-0.1-0.4-0.4-0.4H68.1c-0.3,0-0.4,0.1-0.4,0.4v10.2C67.7,33.8,67.8,33.9,68.1,33.9z"></path>
				<path class="st1" d="M162,22.9h-34.7c-0.3,0-0.4,0.1-0.4,0.4v23.2c0,0.2,0.1,0.4,0.4,0.4H162v6.9h-34.7c-2.3,0-4.3-0.7-5.9-2.1      c-1.6-1.4-2.4-3.1-2.4-5.2V23.3c0-2,0.8-3.8,2.4-5.2c1.6-1.4,3.6-2.1,5.9-2.1H162V22.9z"></path>
				<path class="st1" d="M291.8,43.8V16h8v37.9h-8.6l-26.6-27.8v27.8h-7.9V16h8.6L291.8,43.8z"></path>
			</g>
			<polygon class="st5" points="209.7,8.6 244.5,16 244.5,53.7 209.7,59.1    "></polygon>
			<polygon class="st6" points="174.8,16 174.8,53.7 209.7,59.1 209.7,8.6    "></polygon>
			<g>
				<path class="st5" d="M182.7,53V14.6c0,0-0.1,0-0.1,0c-1.1,0.3-2,0.5-3,0.7v37.5C180.7,52.9,181.7,52.9,182.7,53z"></path>
				<path class="st5" d="M190.1,54.2V13.6c-1,0.1-2.1,0.2-3.1,0.4v39.6C188,53.7,189.1,53.9,190.1,54.2z"></path>
				<path class="st5" d="M197.5,55.7V12.5c-1,0.2-2.1,0.3-3.1,0.5v42.3C195.4,55.5,196.5,55.6,197.5,55.7z"></path>
				<path class="st5" d="M204.9,56.4V10.8c-1,0.3-2.1,0.6-3.1,0.9v44.2C202.8,56,203.9,56.2,204.9,56.4z"></path>
			</g>
		</g>
	</g>
	<g>
		<path class="st3" d="M57.2,101.3C57.2,101.3,57.2,101.2,57.2,101.3C57.2,101.2,57.2,101.3,57.2,101.3    C57.1,101.3,57.2,101.3,57.2,101.3C57.2,101.3,57.2,101.3,57.2,101.3L57.2,101.3L57.2,101.3L57.2,101.3z"></path>
		<path class="st3" d="M56.4,101.1C56.4,101.1,56.4,101.1,56.4,101.1c-0.1,0-0.1,0-0.1,0C56.2,101.1,56.2,101.1,56.4,101.1    C56.3,101.1,56.4,101.1,56.4,101.1L56.4,101.1L56.4,101.1L56.4,101.1z"></path>
		<path class="st3" d="M55.6,100.9C55.6,100.8,55.6,100.8,55.6,100.9c-0.1-0.1-0.2,0-0.2,0c0,0,0,0.1,0.1,0.1    C55.5,100.9,55.6,100.9,55.6,100.9L55.6,100.9L55.6,100.9L55.6,100.9z"></path>
		<path class="st3" d="M55,100.6C55,100.6,54.9,100.5,55,100.6c-0.2-0.1-0.2,0-0.3,0c0,0,0,0.1,0.1,0.1    C54.8,100.7,54.9,100.6,55,100.6L55,100.6L55,100.6L55,100.6z"></path>
		<path class="st3" d="M54.4,100.3c0-0.1,0-0.1-0.1-0.1c-0.1,0-0.2,0-0.3,0.1c0,0.1,0,0.1,0.1,0.1C54.2,100.4,54.3,100.3,54.4,100.3    L54.4,100.3L54.4,100.3L54.4,100.3z"></path>
		<path class="st3" d="M53.9,99.9c0-0.1,0-0.1-0.1-0.1c-0.1,0-0.3,0.1-0.3,0.1c0,0.1,0,0.1,0.1,0.1C53.7,100,53.9,100,53.9,99.9    L53.9,99.9L53.9,99.9L53.9,99.9z"></path>
		<path class="st3" d="M53.6,99.5c0.1-0.1,0-0.1-0.1-0.1c-0.1,0-0.3,0.1-0.4,0.1c-0.1,0.1,0,0.1,0.2,0.1    C53.3,99.6,53.5,99.5,53.6,99.5L53.6,99.5L53.6,99.5L53.6,99.5z"></path>
		<path class="st3" d="M53.3,99c0.1-0.1,0-0.2-0.2-0.2c-0.2,0-0.3,0.1-0.4,0.2c-0.1,0.1,0,0.2,0.2,0.2C53.1,99.2,53.3,99.1,53.3,99    L53.3,99L53.3,99L53.3,99z"></path>
		<path class="st3" d="M53.2,98.5c0.1-0.1,0-0.2-0.2-0.2c-0.2,0-0.4,0.1-0.5,0.2c-0.1,0.1,0,0.2,0.2,0.2    C52.9,98.7,53.1,98.6,53.2,98.5L53.2,98.5L53.2,98.5L53.2,98.5z"></path>
		<path class="st3" d="M53.3,98c0.1-0.1,0-0.2-0.2-0.2c-0.2,0-0.4,0.1-0.5,0.2c-0.1,0.1,0,0.2,0.2,0.2C53,98.2,53.2,98.1,53.3,98    L53.3,98L53.3,98L53.3,98z"></path>
		<path class="st3" d="M53.5,97.4c0.1-0.1,0-0.2-0.2-0.2c-0.2,0-0.5,0.1-0.6,0.2c-0.1,0.1,0,0.2,0.2,0.2    C53.1,97.7,53.4,97.6,53.5,97.4L53.5,97.4L53.5,97.4L53.5,97.4z"></path>
		<path class="st3" d="M53.8,96.9c0.1-0.1,0-0.2-0.3-0.2c-0.2,0-0.5,0.1-0.6,0.2c-0.1,0.1,0,0.2,0.3,0.2    C53.4,97.1,53.7,97,53.8,96.9L53.8,96.9L53.8,96.9L53.8,96.9z"></path>
		<path class="st3" d="M54.3,96.3c0.1-0.1,0-0.3-0.3-0.3c-0.3,0-0.6,0.1-0.7,0.3c-0.1,0.1,0,0.3,0.3,0.3    C53.9,96.6,54.2,96.4,54.3,96.3L54.3,96.3L54.3,96.3L54.3,96.3z"></path>
		<path class="st3" d="M54.9,95.7c0.1-0.2,0-0.3-0.3-0.3c-0.3,0-0.6,0.1-0.7,0.3c-0.1,0.2,0,0.3,0.3,0.3    C54.5,96,54.8,95.9,54.9,95.7L54.9,95.7L54.9,95.7L54.9,95.7z"></path>
		<path class="st3" d="M66,100C66,99.9,66,99.9,66,100C65.9,99.9,65.9,99.9,66,100C65.9,100,65.9,100,66,100    C65.9,100,65.9,100,66,100L66,100L66,100L66,100z"></path>
		<path class="st3" d="M64.8,100.2C64.8,100.2,64.7,100.2,64.8,100.2C64.7,100.2,64.7,100.3,64.8,100.2    C64.8,100.3,64.8,100.2,64.8,100.2C64.9,100.2,64.9,100.2,64.8,100.2L64.8,100.2L64.8,100.2L64.8,100.2z M63.7,100.4    c0,0-0.1,0-0.1,0.1c0,0,0,0.1,0.1,0.1C63.7,100.5,63.7,100.5,63.7,100.4C63.8,100.4,63.7,100.4,63.7,100.4L63.7,100.4L63.7,100.4    L63.7,100.4z"></path>
		<path class="st3" d="M62.7,100.6C62.7,100.5,62.7,100.5,62.7,100.6c-0.1-0.1-0.2,0-0.3,0c0,0,0,0.1,0.1,0.1    C62.6,100.7,62.6,100.6,62.7,100.6L62.7,100.6L62.7,100.6L62.7,100.6z"></path>
		<path class="st3" d="M61.5,100.6c-0.1,0-0.2,0-0.2,0.1c0,0,0,0.1,0.1,0.1C61.4,100.8,61.5,100.7,61.5,100.6    C61.6,100.6,61.6,100.6,61.5,100.6L61.5,100.6L61.5,100.6L61.5,100.6z"></path>
		<path class="st3" d="M60.5,100.7c0-0.1,0-0.1-0.1-0.1c-0.1,0-0.2,0-0.3,0.1c0,0.1,0,0.1,0.1,0.1C60.4,100.8,60.5,100.8,60.5,100.7    L60.5,100.7L60.5,100.7L60.5,100.7z"></path>
		<path class="st3" d="M59.5,100.7c0-0.1,0-0.1-0.1-0.1c-0.1,0-0.3,0.1-0.3,0.1c-0.1,0.1,0,0.1,0.1,0.1    C59.3,100.8,59.5,100.8,59.5,100.7L59.5,100.7L59.5,100.7L59.5,100.7z"></path>
		<path class="st3" d="M58.6,100.6c0.1-0.1,0-0.1-0.2-0.1c-0.1,0-0.3,0.1-0.4,0.1c-0.1,0.1,0,0.1,0.2,0.1    C58.4,100.7,58.5,100.7,58.6,100.6L58.6,100.6L58.6,100.6L58.6,100.6z"></path>
		<path class="st3" d="M57.7,100.4c0.1-0.1,0-0.2-0.2-0.2c-0.2,0-0.3,0.1-0.4,0.2c-0.1,0.1,0,0.2,0.2,0.2    C57.5,100.6,57.7,100.5,57.7,100.4L57.7,100.4L57.7,100.4L57.7,100.4z"></path>
		<path class="st3" d="M57,100.2c0.1-0.1,0-0.2-0.2-0.2c-0.2,0-0.4,0.1-0.5,0.2c-0.1,0.1,0,0.2,0.2,0.2    C56.7,100.4,56.9,100.3,57,100.2L57,100.2L57,100.2L57,100.2z"></path>
		<path class="st3" d="M56.3,99.9c0.1-0.1,0-0.2-0.2-0.2c-0.2,0-0.4,0.1-0.5,0.2c-0.1,0.1,0,0.2,0.2,0.2    C56,100.1,56.2,100,56.3,99.9L56.3,99.9L56.3,99.9L56.3,99.9z"></path>
		<path class="st3" d="M55.8,99.6c0.1-0.1,0-0.2-0.2-0.2c-0.2,0-0.5,0.1-0.5,0.2c-0.1,0.1,0,0.2,0.2,0.2    C55.5,99.8,55.7,99.7,55.8,99.6L55.8,99.6L55.8,99.6L55.8,99.6z"></path>
		<path class="st3" d="M55.4,99.2c0.1-0.1,0-0.2-0.2-0.2c-0.2,0-0.5,0.1-0.6,0.2c-0.1,0.1,0,0.2,0.3,0.2    C55.1,99.4,55.3,99.3,55.4,99.2L55.4,99.2L55.4,99.2L55.4,99.2z"></path>
		<path class="st3" d="M55.2,98.7c0.1-0.1,0-0.2-0.3-0.2c-0.2,0-0.5,0.1-0.6,0.2c-0.1,0.1,0,0.2,0.3,0.2    C54.8,99,55.1,98.8,55.2,98.7L55.2,98.7L55.2,98.7L55.2,98.7z"></path>
		<path class="st3" d="M55.1,98.2c0.1-0.1,0-0.3-0.3-0.3c-0.3,0-0.6,0.1-0.7,0.3c-0.1,0.1,0,0.3,0.3,0.3    C54.6,98.5,55,98.4,55.1,98.2L55.1,98.2L55.1,98.2L55.1,98.2z"></path>
		<path class="st3" d="M72.6,96.1C72.6,96.1,72.6,96.1,72.6,96.1C72.6,96.1,72.6,96.1,72.6,96.1C72.6,96.1,72.6,96.1,72.6,96.1    C72.6,96.1,72.6,96.1,72.6,96.1L72.6,96.1L72.6,96.1L72.6,96.1z"></path>
		<path class="st3" d="M71.9,96.6C72,96.6,71.9,96.6,71.9,96.6c-0.1,0-0.1,0-0.1,0C71.8,96.6,71.8,96.6,71.9,96.6    C71.9,96.6,71.9,96.6,71.9,96.6L71.9,96.6L71.9,96.6L71.9,96.6z"></path>
		<path class="st3" d="M71.1,97.1c-0.1,0-0.1,0-0.1,0C71,97.2,71,97.2,71.1,97.1C71.1,97.2,71.1,97.2,71.1,97.1    C71.2,97.1,71.2,97.1,71.1,97.1L71.1,97.1L71.1,97.1L71.1,97.1z M70.2,97.6c-0.1,0-0.1,0-0.2,0.1c0,0,0,0.1,0.1,0.1    C70.2,97.7,70.3,97.7,70.2,97.6C70.3,97.6,70.3,97.6,70.2,97.6L70.2,97.6L70.2,97.6L70.2,97.6z"></path>
		<path class="st3" d="M69.4,98.1C69.4,98.1,69.4,98,69.4,98.1c-0.2-0.1-0.2,0-0.3,0c0,0,0,0.1,0.1,0.1    C69.3,98.2,69.3,98.1,69.4,98.1L69.4,98.1L69.4,98.1L69.4,98.1z"></path>
		<path class="st3" d="M68.4,98.5C68.4,98.5,68.4,98.4,68.4,98.5c-0.2-0.1-0.3-0.1-0.3,0c0,0,0,0.1,0.1,0.1    C68.2,98.6,68.3,98.6,68.4,98.5L68.4,98.5L68.4,98.5L68.4,98.5z"></path>
		<path class="st3" d="M67.4,98.9c0-0.1,0-0.1-0.1-0.1c-0.1,0-0.2,0-0.3,0.1c0,0.1,0,0.1,0.1,0.1C67.2,99,67.3,99,67.4,98.9    L67.4,98.9L67.4,98.9L67.4,98.9z"></path>
		<path class="st3" d="M66.3,99.2c0.1-0.1,0-0.1-0.1-0.1c-0.1,0-0.3,0.1-0.3,0.1c0,0.1,0,0.1,0.1,0.1C66.1,99.4,66.2,99.3,66.3,99.2    L66.3,99.2L66.3,99.2L66.3,99.2z"></path>
		<path class="st3" d="M65,99.4c-0.1,0-0.3,0.1-0.4,0.1c-0.1,0.1,0,0.1,0.2,0.1c0.1,0,0.3-0.1,0.4-0.1C65.2,99.4,65.2,99.4,65,99.4    L65,99.4L65,99.4L65,99.4z M63.9,99.6c-0.2,0-0.3,0.1-0.4,0.2c-0.1,0.1,0,0.2,0.2,0.2c0.2,0,0.3-0.1,0.4-0.2    C64.1,99.6,64.1,99.6,63.9,99.6L63.9,99.6L63.9,99.6L63.9,99.6z"></path>
		<path class="st3" d="M63,99.9c0.1-0.1,0-0.2-0.2-0.2c-0.2,0-0.4,0.1-0.4,0.2c-0.1,0.1,0,0.2,0.2,0.2C62.7,100,62.9,100,63,99.9    L63,99.9L63,99.9L63,99.9z"></path>
		<path class="st3" d="M61.9,99.9c0.1-0.1,0-0.2-0.2-0.2c-0.2,0-0.4,0.1-0.5,0.2c-0.1,0.1,0,0.2,0.2,0.2    C61.6,100.1,61.8,100,61.9,99.9L61.9,99.9L61.9,99.9L61.9,99.9z"></path>
		<path class="st3" d="M60.9,99.9c0.1-0.1,0-0.2-0.2-0.2c-0.2,0-0.4,0.1-0.5,0.2c-0.1,0.1,0,0.2,0.2,0.2    C60.6,100.1,60.8,100,60.9,99.9L60.9,99.9L60.9,99.9L60.9,99.9z"></path>
		<path class="st3" d="M60,99.8c0.1-0.1,0-0.2-0.2-0.2c-0.2,0-0.5,0.1-0.6,0.2c-0.1,0.1,0,0.2,0.2,0.2C59.6,100,59.9,100,60,99.8    L60,99.8L60,99.8L60,99.8z"></path>
		<path class="st3" d="M59.1,99.7c0.1-0.1,0-0.2-0.3-0.2c-0.2,0-0.5,0.1-0.6,0.2c-0.1,0.1,0,0.2,0.3,0.2    C58.7,99.9,59,99.8,59.1,99.7L59.1,99.7L59.1,99.7L59.1,99.7z"></path>
		<path class="st3" d="M58.3,99.4c0.1-0.1,0-0.3-0.3-0.3c-0.3,0-0.5,0.1-0.6,0.3c-0.1,0.1,0,0.2,0.3,0.2    C57.9,99.7,58.2,99.6,58.3,99.4L58.3,99.4L58.3,99.4L58.3,99.4z"></path>
		<path class="st3" d="M73.3,91.9C73.3,91.9,73.3,91.9,73.3,91.9C73.4,91.9,73.4,91.9,73.3,91.9C73.3,91.9,73.3,91.9,73.3,91.9    C73.3,91.9,73.3,91.9,73.3,91.9L73.3,91.9L73.3,91.9L73.3,91.9z M73.4,92.4C73.4,92.4,73.5,92.4,73.4,92.4    C73.5,92.4,73.5,92.4,73.4,92.4C73.4,92.4,73.4,92.4,73.4,92.4C73.4,92.4,73.4,92.4,73.4,92.4L73.4,92.4L73.4,92.4L73.4,92.4z     M73.4,93c0.1,0,0.1,0,0.1,0C73.5,92.9,73.5,92.9,73.4,93C73.4,92.9,73.4,92.9,73.4,93C73.3,92.9,73.3,93,73.4,93L73.4,93L73.4,93    L73.4,93z M73.3,93.5c0.1,0,0.1,0,0.2-0.1c0,0,0-0.1-0.1-0.1C73.3,93.4,73.2,93.4,73.3,93.5C73.2,93.5,73.2,93.5,73.3,93.5    L73.3,93.5L73.3,93.5L73.3,93.5z"></path>
		<path class="st3" d="M73.2,94C73.2,94,73.2,93.9,73.2,94c-0.2-0.1-0.3,0-0.3,0c0,0,0,0.1,0.1,0.1C73.1,94.1,73.2,94.1,73.2,94    L73.2,94L73.2,94L73.2,94z"></path>
		<path class="st3" d="M72.9,94.6c0,0,0-0.1-0.1-0.1c-0.1,0-0.2,0-0.2,0.1c0,0.1,0,0.1,0.1,0.1C72.7,94.7,72.8,94.6,72.9,94.6    L72.9,94.6L72.9,94.6L72.9,94.6z"></path>
		<path class="st3" d="M72.3,95.1c-0.1,0-0.2,0-0.3,0.1c0,0.1,0,0.1,0.1,0.1c0.1,0,0.2-0.1,0.3-0.1C72.5,95.1,72.4,95.1,72.3,95.1    L72.3,95.1L72.3,95.1L72.3,95.1z M71.7,95.6c-0.1,0-0.3,0.1-0.3,0.1c-0.1,0.1,0,0.1,0.1,0.1c0.1,0,0.3-0.1,0.3-0.1    C71.9,95.7,71.9,95.6,71.7,95.6L71.7,95.6L71.7,95.6L71.7,95.6z"></path>
		<path class="st3" d="M71.2,96.3c0.1-0.1,0-0.1-0.2-0.1c-0.1,0-0.3,0.1-0.4,0.1c-0.1,0.1,0,0.1,0.1,0.1    C71,96.4,71.1,96.3,71.2,96.3L71.2,96.3L71.2,96.3L71.2,96.3z"></path>
		<path class="st3" d="M70.4,96.8c0.1-0.1,0-0.2-0.2-0.2c-0.2,0-0.3,0.1-0.4,0.2c-0.1,0.1,0,0.2,0.2,0.2    C70.2,96.9,70.4,96.9,70.4,96.8L70.4,96.8L70.4,96.8L70.4,96.8z"></path>
		<path class="st3" d="M69.5,97.3c0.1-0.1,0-0.2-0.2-0.2c-0.2,0-0.4,0.1-0.4,0.2c-0.1,0.1,0,0.2,0.2,0.2    C69.3,97.4,69.5,97.4,69.5,97.3L69.5,97.3L69.5,97.3L69.5,97.3z"></path>
		<path class="st3" d="M68.4,97.5c-0.2,0-0.4,0.1-0.5,0.2c-0.1,0.1,0,0.2,0.2,0.2c0.2,0,0.4-0.1,0.5-0.2    C68.7,97.6,68.6,97.5,68.4,97.5L68.4,97.5L68.4,97.5L68.4,97.5z"></path>
		<path class="st3" d="M67.6,98.1c0.1-0.1,0-0.2-0.2-0.2c-0.2,0-0.4,0.1-0.5,0.2c-0.1,0.1,0,0.2,0.2,0.2    C67.2,98.3,67.5,98.2,67.6,98.1L67.6,98.1L67.6,98.1L67.6,98.1z"></path>
		<path class="st3" d="M66.5,98.4c0.1-0.1,0-0.2-0.2-0.2c-0.2,0-0.5,0.1-0.6,0.2c-0.1,0.1,0,0.2,0.2,0.2    C66.1,98.7,66.4,98.6,66.5,98.4L66.5,98.4L66.5,98.4L66.5,98.4z"></path>
		<path class="st3" d="M65.4,98.7c0.1-0.1,0-0.2-0.3-0.2c-0.2,0-0.5,0.1-0.6,0.2c-0.1,0.1,0,0.2,0.3,0.2C65,99,65.3,98.9,65.4,98.7    L65.4,98.7L65.4,98.7L65.4,98.7z"></path>
		<path class="st3" d="M64,98.7c-0.3,0-0.5,0.1-0.6,0.2c-0.1,0.1,0,0.2,0.3,0.2c0.3,0,0.5-0.1,0.6-0.2C64.4,98.8,64.3,98.7,64,98.7    L64,98.7L64,98.7L64,98.7z M67.7,89.9C67.7,89.9,67.7,89.9,67.7,89.9C67.7,89.8,67.7,89.8,67.7,89.9    C67.7,89.8,67.6,89.8,67.7,89.9C67.6,89.9,67.6,89.9,67.7,89.9L67.7,89.9L67.7,89.9L67.7,89.9z"></path>
		<path class="st3" d="M68.6,90C68.6,90,68.6,90,68.6,90c-0.1,0-0.1,0-0.1,0C68.5,90,68.5,90.1,68.6,90C68.6,90.1,68.6,90,68.6,90    L68.6,90L68.6,90L68.6,90z"></path>
		<path class="st3" d="M69.3,90.3c0,0,0.1,0,0.1,0C69.4,90.2,69.4,90.2,69.3,90.3C69.3,90.2,69.3,90.2,69.3,90.3    C69.2,90.3,69.3,90.3,69.3,90.3L69.3,90.3L69.3,90.3L69.3,90.3z M70,90.6c0.1,0,0.1,0,0.2-0.1c0,0,0-0.1-0.1-0.1    C70,90.5,70,90.5,70,90.6C69.9,90.6,69.9,90.6,70,90.6L70,90.6L70,90.6L70,90.6z M70.6,90.9c0.1,0,0.2,0,0.2-0.1    c0,0,0-0.1-0.1-0.1C70.6,90.8,70.5,90.8,70.6,90.9C70.5,90.9,70.5,90.9,70.6,90.9L70.6,90.9L70.6,90.9L70.6,90.9z"></path>
		<path class="st3" d="M71.3,91.2c0,0,0-0.1-0.1-0.1c-0.1,0-0.2,0-0.2,0.1c0,0.1,0,0.1,0.1,0.1C71.2,91.3,71.3,91.3,71.3,91.2    L71.3,91.2L71.3,91.2L71.3,91.2z"></path>
		<path class="st3" d="M71.5,91.8c0.1,0,0.2-0.1,0.3-0.1c0-0.1,0-0.1-0.1-0.1c-0.1,0-0.2,0-0.3,0.1C71.3,91.7,71.4,91.8,71.5,91.8    L71.5,91.8L71.5,91.8L71.5,91.8z M71.7,92.2c0.1,0,0.3-0.1,0.3-0.1c0.1-0.1,0-0.1-0.1-0.1c-0.1,0-0.3,0.1-0.3,0.1    C71.6,92.2,71.6,92.2,71.7,92.2L71.7,92.2L71.7,92.2L71.7,92.2z"></path>
		<path class="st3" d="M72.2,92.6c0.1-0.1,0-0.1-0.2-0.1c-0.1,0-0.3,0.1-0.4,0.1c-0.1,0.1,0,0.1,0.1,0.1    C72,92.7,72.2,92.7,72.2,92.6L72.2,92.6L72.2,92.6L72.2,92.6z"></path>
		<path class="st3" d="M71.7,93.1c-0.1,0.1,0,0.2,0.2,0.2c0.2,0,0.3-0.1,0.4-0.2c0.1-0.1,0-0.2-0.2-0.2C71.9,93,71.7,93,71.7,93.1    L71.7,93.1L71.7,93.1L71.7,93.1z M71.5,93.7c-0.1,0.1,0,0.2,0.2,0.2c0.2,0,0.4-0.1,0.4-0.2c0.1-0.1,0-0.2-0.2-0.2    C71.8,93.5,71.6,93.6,71.5,93.7L71.5,93.7L71.5,93.7L71.5,93.7z M71.2,94.2c-0.1,0.1,0,0.2,0.2,0.2c0.2,0,0.4-0.1,0.5-0.2    c0.1-0.1,0-0.2-0.2-0.2C71.4,94.1,71.2,94.1,71.2,94.2L71.2,94.2L71.2,94.2L71.2,94.2z"></path>
		<path class="st3" d="M71.4,94.8c0.1-0.1,0-0.2-0.2-0.2c-0.2,0-0.4,0.1-0.5,0.2c-0.1,0.1,0,0.2,0.2,0.2    C71.1,95,71.3,94.9,71.4,94.8L71.4,94.8L71.4,94.8L71.4,94.8z"></path>
		<path class="st3" d="M70.9,95.4c0.1-0.1,0-0.2-0.2-0.2c-0.2,0-0.5,0.1-0.6,0.2c-0.1,0.1,0,0.2,0.2,0.2    C70.5,95.6,70.8,95.5,70.9,95.4L70.9,95.4L70.9,95.4L70.9,95.4z"></path>
		<path class="st3" d="M70.2,95.9c0.1-0.1,0-0.2-0.3-0.2c-0.2,0-0.5,0.1-0.6,0.2c-0.1,0.1,0,0.2,0.3,0.2    C69.8,96.2,70.1,96.1,70.2,95.9L70.2,95.9L70.2,95.9L70.2,95.9z"></path>
		<path class="st3" d="M69.4,96.4c0.1-0.1,0-0.3-0.3-0.3c-0.3,0-0.5,0.1-0.6,0.3c-0.1,0.1,0,0.2,0.3,0.2    C69,96.7,69.3,96.6,69.4,96.4L69.4,96.4L69.4,96.4L69.4,96.4z"></path>
		<path class="st3" d="M59,91.2C59,91.2,59,91.1,59,91.2C58.9,91.1,58.9,91.2,59,91.2C58.9,91.2,58.9,91.2,59,91.2    C58.9,91.2,59,91.2,59,91.2L59,91.2L59,91.2L59,91.2z"></path>
		<path class="st3" d="M60.1,90.9C60.1,90.9,60.1,90.9,60.1,90.9c-0.1,0-0.1,0-0.1,0C60,90.9,60,90.9,60.1,90.9    C60.1,90.9,60.1,90.9,60.1,90.9L60.1,90.9L60.1,90.9L60.1,90.9z"></path>
		<path class="st3" d="M61.3,90.7C61.3,90.7,61.3,90.6,61.3,90.7c-0.1,0-0.2,0-0.2,0c0,0,0,0,0.1,0C61.2,90.7,61.3,90.7,61.3,90.7    L61.3,90.7L61.3,90.7L61.3,90.7z"></path>
		<path class="st3" d="M62.4,90.5C62.5,90.5,62.4,90.5,62.4,90.5c-0.1-0.1-0.2,0-0.2,0c0,0,0,0.1,0.1,0.1    C62.3,90.6,62.4,90.6,62.4,90.5L62.4,90.5L62.4,90.5L62.4,90.5z"></path>
		<path class="st3" d="M63.6,90.4C63.6,90.4,63.6,90.4,63.6,90.4c-0.2-0.1-0.3,0-0.3,0c0,0,0,0.1,0.1,0.1    C63.5,90.5,63.5,90.5,63.6,90.4L63.6,90.4L63.6,90.4L63.6,90.4z"></path>
		<path class="st3" d="M64.7,90.4C64.7,90.4,64.7,90.3,64.7,90.4c-0.2-0.1-0.3-0.1-0.3,0c0,0,0,0.1,0.1,0.1    C64.5,90.5,64.6,90.5,64.7,90.4L64.7,90.4L64.7,90.4L64.7,90.4z"></path>
		<path class="st3" d="M65.7,90.4c0-0.1,0-0.1-0.1-0.1c-0.1,0-0.2,0-0.3,0.1c0,0.1,0,0.1,0.1,0.1C65.6,90.5,65.7,90.5,65.7,90.4    L65.7,90.4L65.7,90.4L65.7,90.4z"></path>
		<path class="st3" d="M66.7,90.5c0-0.1,0-0.1-0.1-0.1c-0.1,0-0.3,0.1-0.3,0.1c-0.1,0.1,0,0.1,0.1,0.1    C66.5,90.6,66.7,90.6,66.7,90.5L66.7,90.5L66.7,90.5L66.7,90.5z"></path>
		<path class="st3" d="M67.7,90.7c0.1-0.1,0-0.1-0.2-0.1c-0.1,0-0.3,0.1-0.4,0.1c-0.1,0.1,0,0.1,0.1,0.1    C67.4,90.8,67.6,90.7,67.7,90.7L67.7,90.7L67.7,90.7L67.7,90.7z"></path>
		<path class="st3" d="M68.1,91c0.2,0,0.3-0.1,0.4-0.2c0.1-0.1,0-0.2-0.2-0.2c-0.2,0-0.3,0.1-0.4,0.2C67.9,91,67.9,91,68.1,91    L68.1,91L68.1,91L68.1,91z M68.6,91.2c-0.1,0.1,0,0.2,0.2,0.2c0.2,0,0.4-0.1,0.4-0.2c0.1-0.1,0-0.2-0.2-0.2    C68.8,91,68.6,91.1,68.6,91.2L68.6,91.2L68.6,91.2L68.6,91.2z M69.3,91.7c0.2,0,0.4-0.1,0.5-0.2c0.1-0.1,0-0.2-0.2-0.2    c-0.2,0-0.4,0.1-0.5,0.2C69,91.6,69.1,91.7,69.3,91.7L69.3,91.7L69.3,91.7L69.3,91.7z M69.7,92.2c0.2,0,0.4-0.1,0.5-0.2    c0.1-0.1,0-0.2-0.2-0.2c-0.2,0-0.4,0.1-0.5,0.2C69.4,92.1,69.5,92.2,69.7,92.2L69.7,92.2L69.7,92.2L69.7,92.2z"></path>
		<path class="st3" d="M70.5,92.4c0.1-0.1,0-0.2-0.2-0.2c-0.2,0-0.5,0.1-0.6,0.2c-0.1,0.1,0,0.2,0.2,0.2    C70.2,92.6,70.5,92.5,70.5,92.4L70.5,92.4L70.5,92.4L70.5,92.4z"></path>
		<path class="st3" d="M70.7,92.9c0.1-0.1,0-0.2-0.3-0.2c-0.2,0-0.5,0.1-0.6,0.2c-0.1,0.1,0,0.2,0.3,0.2    C70.3,93.1,70.6,93,70.7,92.9L70.7,92.9L70.7,92.9L70.7,92.9z"></path>
		<path class="st3" d="M69.8,93.4c-0.1,0.1,0,0.2,0.3,0.2c0.3,0,0.5-0.1,0.6-0.2c0.1-0.1,0-0.2-0.3-0.2    C70.2,93.2,69.9,93.3,69.8,93.4L69.8,93.4L69.8,93.4L69.8,93.4z"></path>
		<path class="st3" d="M70.6,94c0.1-0.1,0-0.3-0.3-0.3c-0.3,0-0.6,0.1-0.7,0.3c-0.1,0.1,0,0.3,0.3,0.3C70.2,94.3,70.5,94.1,70.6,94    L70.6,94L70.6,94L70.6,94z"></path>
		<path class="st3" d="M52.3,95.1C52.3,95,52.3,95,52.3,95.1c-0.1,0-0.1,0-0.1,0C52.2,95.1,52.2,95.1,52.3,95.1    C52.3,95.1,52.3,95.1,52.3,95.1L52.3,95.1L52.3,95.1L52.3,95.1z"></path>
		<path class="st3" d="M53.1,94.5C53.1,94.5,53.1,94.5,53.1,94.5c-0.1-0.1-0.2,0-0.2,0c0,0,0,0.1,0.1,0.1    C53,94.6,53.1,94.5,53.1,94.5L53.1,94.5L53.1,94.5L53.1,94.5z"></path>
		<path class="st3" d="M53.9,94C54,93.9,53.9,93.9,53.9,94c-0.2-0.1-0.3-0.1-0.3,0c0,0,0,0.1,0.1,0.1C53.8,94.1,53.9,94,53.9,94    L53.9,94L53.9,94L53.9,94z"></path>
		<path class="st3" d="M54.9,93.5c0.1-0.1,0-0.1-0.1-0.1c-0.1,0-0.3,0.1-0.3,0.1c-0.1,0.1,0,0.1,0.1,0.1    C54.7,93.6,54.8,93.6,54.9,93.5L54.9,93.5L54.9,93.5L54.9,93.5z"></path>
		<path class="st3" d="M55.9,93c0.1-0.1,0-0.1-0.2-0.1c-0.1,0-0.3,0.1-0.4,0.1c-0.1,0.1,0,0.1,0.2,0.1C55.7,93.2,55.8,93.1,55.9,93    L55.9,93L55.9,93L55.9,93z"></path>
		<path class="st3" d="M57,92.6c0.1-0.1,0-0.2-0.2-0.2c-0.2,0-0.4,0.1-0.5,0.2c-0.1,0.1,0,0.2,0.2,0.2C56.7,92.8,56.9,92.7,57,92.6    L57,92.6L57,92.6L57,92.6z"></path>
		<path class="st3" d="M58.1,92.2c0.1-0.1,0-0.2-0.2-0.2c-0.2,0-0.4,0.1-0.5,0.2c-0.1,0.1,0,0.2,0.2,0.2    C57.8,92.4,58,92.3,58.1,92.2L58.1,92.2L58.1,92.2L58.1,92.2z"></path>
		<path class="st3" d="M59.2,91.9c0.1-0.1,0-0.2-0.3-0.2c-0.2,0-0.5,0.1-0.6,0.2c-0.1,0.1,0,0.2,0.3,0.2    C58.9,92.1,59.1,92,59.2,91.9L59.2,91.9L59.2,91.9L59.2,91.9z"></path>
		<path class="st3" d="M60.4,91.6c0.1-0.1,0-0.3-0.3-0.3c-0.3,0-0.6,0.1-0.7,0.3c-0.1,0.1,0,0.3,0.3,0.3    C60,91.9,60.3,91.7,60.4,91.6L60.4,91.6L60.4,91.6L60.4,91.6z"></path>
		<path class="st3" d="M60.8,91.7c0.3,0,0.6-0.1,0.7-0.2c0,0.1,0.2,0.1,0.4,0.1c0.2,0,0.5-0.1,0.7-0.2c0.1,0.1,0.2,0.1,0.4,0.1    c0.2,0,0.4,0,0.6-0.1c0.1,0.1,0.2,0.2,0.5,0.2c0.1,0,0.3,0,0.5-0.1c0,0,0,0,0,0.1c-0.2,0-0.4,0.1-0.5,0.1    c-0.1-0.1-0.2-0.1-0.4-0.1c-0.2,0-0.5,0.1-0.7,0.2c-0.1,0-0.2-0.1-0.4-0.1c-0.3,0-0.6,0.1-0.8,0.2c-0.1,0-0.2-0.1-0.3-0.1    c-0.3,0-0.7,0.1-0.9,0.3c-0.1,0-0.2,0-0.3,0c-0.3,0-0.7,0.2-0.9,0.3c-0.1,0-0.2,0-0.3,0c-0.3,0-0.7,0.1-0.8,0.3c0,0,0,0.1,0,0.1    c-0.1,0-0.1,0-0.3,0c-0.3,0-0.6,0.1-0.8,0.3c-0.1,0.2,0,0.3,0.3,0.3c0.3,0,0.6-0.1,0.8-0.3c0,0,0,0,0-0.1c0.1,0,0.2,0.1,0.3,0.1    c0.3,0,0.7-0.1,0.8-0.3c0.1,0,0.2,0.1,0.3,0.1h0c-0.2,0.1-0.3,0.2-0.4,0.3c0,0-0.1,0-0.1,0c-0.4,0-0.8,0.2-1,0.4c0,0,0,0,0,0    c0,0,0,0-0.1,0c-0.4,0-0.8,0.2-0.9,0.4c0,0,0,0.1,0,0.1h0c-0.3,0-0.7,0.1-0.9,0.3c0,0.1-0.1,0.1,0,0.2h0c-0.3,0-0.7,0.1-0.8,0.3    c-0.1,0.1-0.1,0.2,0,0.2h0c-0.3,0-0.6,0.1-0.8,0.3c-0.1,0.2,0,0.3,0.3,0.3c0.3,0,0.6-0.1,0.8-0.3c0.1-0.1,0.1-0.2,0-0.2h0    c0.2,0,0.3,0,0.5-0.1l0,0c-0.1,0.1-0.1,0.2,0,0.2c-0.3,0-0.6,0.2-0.7,0.3c-0.1,0.1-0.1,0.2,0,0.3c-0.3,0-0.5,0.2-0.6,0.3    c-0.1,0.1,0,0.2,0.1,0.3c-0.2,0.1-0.4,0.2-0.5,0.3c-0.1,0.1,0,0.3,0.2,0.3c-0.2,0-0.4,0.1-0.5,0.3c-0.1,0.2,0,0.3,0.3,0.3    c0,0,0.1,0,0.1,0c-0.2,0-0.5,0.1-0.6,0.3c-0.1,0.2,0,0.3,0.3,0.3c0.3,0,0.6-0.1,0.7-0.3c0.1-0.2,0-0.3-0.3-0.3c0,0-0.1,0-0.1,0    c0.2,0,0.5-0.1,0.6-0.3c0,0,0,0,0,0c0,0.1,0.1,0.1,0.2,0.1c-0.1,0.1-0.2,0.1-0.3,0.2c-0.1,0.2,0,0.3,0.4,0.3h0    c-0.1,0.1-0.2,0.1-0.2,0.2c-0.1,0.2,0,0.3,0.3,0.3c0.1,0,0.1,0,0.2,0c-0.1,0-0.2,0.1-0.2,0.2c-0.1,0.2,0,0.3,0.3,0.3    c0.1,0,0.3,0,0.4-0.1c-0.1,0-0.2,0.1-0.3,0.2c-0.1,0.2,0,0.3,0.3,0.3c0.3,0,0.6-0.1,0.7-0.3c0.1-0.1,0-0.1,0-0.2    c0.1,0,0.1,0,0.2,0l0,0c-0.1,0.1,0,0.2,0.1,0.3c0,0-0.1,0-0.1,0c-0.3,0-0.6,0.1-0.7,0.3c-0.1,0.1,0,0.3,0.3,0.3    c0.3,0,0.6-0.1,0.7-0.3c0.1-0.1,0-0.2-0.1-0.2c0,0,0.1,0,0.1,0c0.1,0,0.2,0,0.4-0.1c-0.1,0.2,0.1,0.3,0.4,0.3c0.2,0,0.4,0,0.5-0.1    c-0.1,0.1,0.1,0.3,0.4,0.3c0.2,0,0.5-0.1,0.6-0.2c-0.1,0.1,0.1,0.2,0.3,0.2c0.3,0,0.6-0.1,0.7-0.3c-0.1,0.1,0,0.3,0.3,0.3    c0.3,0,0.6-0.1,0.7-0.3c0.1-0.2,0-0.3-0.3-0.3c0.1,0,0.1-0.1,0.2-0.1c0.1,0.1,0.2,0.1,0.4,0.1c0.1,0,0.1,0,0.2,0    c-0.2,0-0.3,0.1-0.4,0.2c-0.1,0.1,0,0.3,0.3,0.3c0.3,0,0.6-0.1,0.7-0.3c0.1-0.1,0-0.3-0.3-0.3c-0.1,0-0.1,0-0.2,0    c0.2,0,0.3-0.1,0.5-0.2c0.1,0,0.2,0.1,0.3,0.1c0.3,0,0.7-0.1,0.8-0.3l0,0c0.1,0,0.2,0.1,0.3,0.1c0.3,0,0.7-0.1,0.8-0.3    c0,0,0-0.1,0.1-0.1c0.1,0,0.2,0.1,0.3,0.1c0.3,0,0.6-0.1,0.8-0.3c0.1-0.1,0.1-0.1,0-0.2c0.1,0,0.1,0.1,0.3,0.1    c0.3,0,0.6-0.1,0.7-0.3c0.1-0.2,0-0.3-0.3-0.3c-0.1,0-0.3,0-0.4,0.1c0,0,0-0.1,0-0.1h0c0.2,0,0.5-0.1,0.7-0.2c0,0,0,0,0,0    c-0.1,0.1,0,0.3,0.3,0.3c0.3,0,0.6-0.1,0.7-0.3c0.1-0.1,0-0.3-0.3-0.3c-0.2,0-0.4,0.1-0.5,0.1c0,0,0.1-0.1,0.1-0.1    c0-0.1,0.1-0.1,0-0.2c0.3,0,0.7-0.2,0.8-0.3c0.1-0.1,0.1-0.2,0-0.2c0.3,0,0.6-0.2,0.7-0.3c0.1-0.1,0-0.2-0.1-0.3    c0.3,0,0.5-0.1,0.7-0.3c0.1-0.2,0-0.3-0.3-0.3c0.3,0,0.6-0.1,0.7-0.3c0.1-0.2,0-0.3-0.3-0.3c-0.3,0-0.6,0.1-0.7,0.3    c-0.1,0.1,0,0.3,0.2,0.3c-0.3,0-0.6,0.1-0.7,0.3c-0.1,0.1,0,0.2,0.1,0.3c-0.3,0-0.6,0.2-0.7,0.3c-0.1,0.1-0.1,0.2,0,0.2    c-0.3,0-0.6,0.2-0.8,0.3c0,0.1-0.1,0.1,0,0.2c-0.3,0-0.7,0.2-0.9,0.3c0,0,0,0.1,0,0.1h0c-0.4,0-0.8,0.2-0.9,0.4l0,0    c0,0-0.1,0-0.1,0c-0.3,0-0.7,0.1-0.9,0.3c-0.1,0-0.1,0-0.2,0c-0.3,0-0.6,0.1-0.8,0.2c-0.1-0.1-0.3-0.1-0.5-0.1    c-0.2,0-0.4,0.1-0.6,0.2c-0.1-0.1-0.2-0.1-0.5-0.1c-0.2,0-0.4,0.1-0.6,0.2c-0.1-0.1-0.2-0.1-0.4-0.1c-0.2,0-0.4,0-0.5,0.1    c0-0.1-0.1-0.2-0.3-0.2c-0.2,0-0.4,0-0.6,0.1c0-0.1,0-0.2-0.2-0.2c-0.1,0-0.3,0-0.5,0c0.1-0.1,0.1-0.2,0-0.3    c-0.1-0.1-0.3-0.1-0.4-0.1c0.1-0.1,0.2-0.2,0.1-0.3c-0.1-0.1-0.2-0.1-0.4-0.1c0.1-0.1,0.2-0.2,0.2-0.3c0-0.1-0.1-0.1-0.3-0.2    c0.2-0.1,0.3-0.2,0.3-0.3c0.1-0.1,0-0.2-0.1-0.2c0.2-0.1,0.4-0.2,0.5-0.3c0.1-0.1,0.1-0.2,0-0.3c0.2,0,0.4-0.1,0.5-0.2    c0.1-0.1,0.2-0.2,0.1-0.3c0.2,0,0.4-0.1,0.5-0.2c0.2-0.1,0.3-0.2,0.3-0.3c0.2,0,0.4,0,0.6-0.1c0.2-0.1,0.3-0.2,0.4-0.3    c0.2,0,0.3,0,0.5,0c0.2-0.1,0.4-0.2,0.5-0.3c0.1,0,0.3,0.1,0.5,0c0.2,0,0.4-0.1,0.5-0.2c0.1,0.1,0.2,0.1,0.4,0.1    c0.2,0,0.4-0.1,0.6-0.2c0,0.1,0.2,0.1,0.4,0.1c0.2,0,0.4,0,0.6-0.1c0,0.1,0.1,0.2,0.2,0.2c0.2,0,0.4,0,0.6,0c0,0.1,0,0.2,0.1,0.2    c0.1,0,0.3,0,0.4,0c0,0,0,0,0,0c0,0.1,0,0.1,0,0.2l0,0c0.2,0.2,0.6,0.6,0,1.2c-0.1,0.1,0,0.2,0.2,0.1c1.7-0.7,2.2-1.5,2.2-1.6    c0-0.1,0.1-0.1,0.1-0.2c0,0,0.1-0.1,0.1-0.1c0.1-0.2,0.1-0.3-0.1-0.4c0,0,0.1-0.1,0.1-0.1c0.2-0.2,0-0.4-0.2-0.5    c0.2-0.2,0-0.4-0.4-0.5c0.1-0.2-0.1-0.4-0.6-0.4h0c0-0.2-0.2-0.3-0.6-0.3c-0.1,0-0.1,0-0.2,0c0-0.1-0.2-0.3-0.5-0.3    c-0.1,0-0.2,0-0.4,0c0-0.1-0.2-0.2-0.5-0.2c-0.2,0-0.4,0-0.5,0.1c-0.1-0.1-0.2-0.2-0.4-0.2c-0.2,0-0.5,0.1-0.7,0.1    c-0.1-0.1-0.2-0.1-0.4-0.1c-0.3,0-0.6,0.1-0.7,0.2c-0.1-0.1-0.2-0.1-0.4-0.1c-0.3,0-0.7,0.1-0.8,0.3c0-0.1-0.2-0.1-0.3-0.1    c-0.3,0-0.6,0.1-0.8,0.3C60.4,91.5,60.5,91.7,60.8,91.7L60.8,91.7L60.8,91.7L60.8,91.7z"></path>
		<path class="st3" d="M52,97.1c0-0.1,0-0.1-0.1-0.1c-0.1,0-0.3,0.1-0.3,0.1c0,0.1,0,0.1,0.1,0.1C51.8,97.2,52,97.2,52,97.1L52,97.1    L52,97.1L52,97.1z"></path>
		<path class="st3" d="M52.4,96.5c0.1-0.1,0-0.1-0.1-0.1c-0.1,0-0.3,0.1-0.3,0.1c-0.1,0.1,0,0.1,0.1,0.1    C52.2,96.7,52.4,96.6,52.4,96.5L52.4,96.5L52.4,96.5L52.4,96.5z"></path>
		<path class="st3" d="M52.9,96c0.1-0.1,0-0.2-0.2-0.2c-0.2,0-0.3,0.1-0.4,0.2c-0.1,0.1,0,0.2,0.2,0.2C52.7,96.1,52.9,96.1,52.9,96    L52.9,96L52.9,96L52.9,96z"></path>
		<path class="st3" d="M53.5,95.4c0.1-0.1,0-0.2-0.2-0.2c-0.2,0-0.4,0.1-0.5,0.2c-0.1,0.1,0,0.2,0.2,0.2    C53.3,95.6,53.5,95.5,53.5,95.4L53.5,95.4L53.5,95.4L53.5,95.4z"></path>
		<path class="st3" d="M54.3,94.9c0.1-0.1,0-0.2-0.2-0.2c-0.2,0-0.4,0.1-0.5,0.2c-0.1,0.1,0,0.2,0.2,0.2C54,95.1,54.2,95,54.3,94.9    L54.3,94.9L54.3,94.9L54.3,94.9z"></path>
		<path class="st3" d="M55.1,94.3c0.1-0.1,0-0.2-0.2-0.2c-0.2,0-0.5,0.1-0.6,0.2c-0.1,0.1,0,0.2,0.2,0.2    C54.8,94.6,55,94.5,55.1,94.3L55.1,94.3L55.1,94.3L55.1,94.3z"></path>
		<path class="st3" d="M56.1,93.8c0.1-0.1,0-0.2-0.3-0.2c-0.3,0-0.5,0.1-0.6,0.2c-0.1,0.1,0,0.2,0.3,0.2C55.7,94.1,56,94,56.1,93.8    L56.1,93.8L56.1,93.8L56.1,93.8z"></path>
		<path class="st3" d="M57.1,93.4c0.1-0.1,0-0.3-0.3-0.3s-0.6,0.1-0.7,0.3c-0.1,0.2,0,0.3,0.3,0.3C56.7,93.7,57,93.6,57.1,93.4    L57.1,93.4L57.1,93.4L57.1,93.4z"></path>
		<path class="st1" d="M91.6,92.5c-0.3,0-0.5,0.1-0.6,0.2c-0.2,0.1-0.2,0.3-0.2,0.6c0,0.3,0.1,0.5,0.2,0.6c0.1,0.2,0.3,0.3,0.6,0.4    c0.2,0.1,0.5,0.2,0.8,0.2c0.3,0.1,0.6,0.2,0.9,0.3c0.3,0.1,0.6,0.2,0.8,0.4c0.2,0.2,0.4,0.4,0.6,0.7c0.1,0.3,0.2,0.6,0.2,1    c0,0.7-0.3,1.3-0.9,1.8c-0.6,0.5-1.3,0.8-2.3,0.8c-0.9,0-1.7-0.2-2.3-0.7c-0.6-0.5-0.9-1.1-0.9-1.9h2.1c0.1,0.7,0.4,1,1,1    c0.3,0,0.5-0.1,0.7-0.2c0.2-0.1,0.2-0.3,0.2-0.6c0-0.2-0.1-0.4-0.2-0.6c-0.1-0.1-0.3-0.3-0.6-0.4c-0.2-0.1-0.5-0.2-0.8-0.2    c-0.3-0.1-0.6-0.2-0.9-0.3c-0.3-0.1-0.6-0.2-0.8-0.4c-0.2-0.2-0.4-0.4-0.6-0.7c-0.1-0.3-0.2-0.6-0.2-1c0-0.8,0.3-1.4,0.9-1.9    c0.6-0.5,1.3-0.7,2.2-0.7c0.9,0,1.6,0.2,2.2,0.6c0.5,0.4,0.8,1,0.9,1.9h-2.2c0-0.3-0.1-0.5-0.3-0.7C92,92.6,91.8,92.5,91.6,92.5    L91.6,92.5L91.6,92.5L91.6,92.5z M101.6,99.3l-0.5-1.4h-3l-0.5,1.4h-2.1l2.9-8.3h2.5l2.9,8.3H101.6L101.6,99.3L101.6,99.3z     M98.7,96.4h2l-1-3L98.7,96.4L98.7,96.4L98.7,96.4z M106.8,99.3h-2V91h2v3.6l2.7-3.6h2.6l-3.4,4.1l3.4,4.1h-2.6l-2.8-3.7V99.3    L106.8,99.3L106.8,99.3z M116.1,92.5c-0.3,0-0.5,0.1-0.6,0.2c-0.2,0.1-0.2,0.3-0.2,0.6c0,0.3,0.1,0.5,0.2,0.6    c0.1,0.2,0.3,0.3,0.6,0.4c0.2,0.1,0.5,0.2,0.8,0.2c0.3,0.1,0.6,0.2,0.9,0.3c0.3,0.1,0.6,0.2,0.8,0.4c0.2,0.2,0.4,0.4,0.6,0.7    c0.1,0.3,0.2,0.6,0.2,1c0,0.7-0.3,1.3-0.9,1.8c-0.6,0.5-1.3,0.8-2.2,0.8c-0.9,0-1.7-0.2-2.3-0.7c-0.6-0.5-0.8-1.1-0.8-1.9h2.1    c0.1,0.7,0.4,1,1,1c0.3,0,0.5-0.1,0.7-0.2c0.2-0.1,0.2-0.3,0.2-0.6c0-0.2-0.1-0.4-0.2-0.6c-0.1-0.1-0.3-0.3-0.6-0.4    c-0.2-0.1-0.5-0.2-0.8-0.2c-0.3-0.1-0.6-0.2-0.9-0.3c-0.3-0.1-0.6-0.2-0.8-0.4c-0.2-0.2-0.4-0.4-0.6-0.7c-0.1-0.3-0.2-0.6-0.2-1    c0-0.8,0.3-1.4,0.9-1.9c0.6-0.5,1.3-0.7,2.2-0.7c0.9,0,1.6,0.2,2.2,0.6c0.6,0.4,0.8,1,0.9,1.9H117c0-0.3-0.1-0.5-0.3-0.7    C116.5,92.6,116.3,92.5,116.1,92.5L116.1,92.5L116.1,92.5L116.1,92.5z M126.1,91h2v8.3h-2v-3.4h-3.2v3.4h-2V91h2v3.3h3.2V91    L126.1,91L126.1,91z M135.2,99.3l-0.5-1.4h-3l-0.5,1.4h-2.2L132,91h2.5l2.9,8.3H135.2L135.2,99.3L135.2,99.3z M132.2,96.4h2l-1-3    L132.2,96.4L132.2,96.4L132.2,96.4z M147.7,91v8.3h-2v-4.7l-1.9,4.7h-1.5l-1.9-4.7v4.7h-2V91h2.3l2.4,5.7l2.4-5.7H147.7L147.7,91    L147.7,91z"></path>
		<path class="st1" d="M158.1,91.7c0.6,0.5,1.1,1.1,1.3,1.8h-0.8c-0.2-0.5-0.5-1-1-1.3c-0.5-0.3-1.1-0.5-1.7-0.5    c-0.6,0-1.1,0.1-1.6,0.4c-0.5,0.3-0.8,0.7-1.1,1.2c-0.3,0.5-0.4,1.1-0.4,1.8c0,0.7,0.1,1.3,0.4,1.8c0.3,0.5,0.6,0.9,1.1,1.2    c0.5,0.3,1,0.4,1.6,0.4c0.5,0,1-0.1,1.5-0.4c0.4-0.2,0.8-0.6,1.1-1c0.3-0.5,0.4-1,0.5-1.6h-3.3v-0.6h4v0.7    c-0.1,0.7-0.2,1.3-0.6,1.8c-0.3,0.5-0.8,1-1.3,1.3c-0.6,0.3-1.2,0.5-1.9,0.5c-0.8,0-1.4-0.2-2-0.5c-0.6-0.3-1-0.8-1.4-1.4    c-0.3-0.6-0.5-1.3-0.5-2.1s0.2-1.5,0.5-2.1c0.3-0.6,0.8-1.1,1.4-1.4c0.6-0.3,1.3-0.5,2-0.5C156.7,91,157.5,91.3,158.1,91.7    L158.1,91.7z"></path>
		<path class="st1" d="M162.1,95.1h1.6c1.3,0,1.9-0.6,1.9-1.7c0-1.1-0.6-1.7-1.9-1.7h-1.6V95.1L162.1,95.1z M165.6,99.1l-2.2-3.3    h-1.3v3.3h-0.8v-8h2.4c0.9,0,1.6,0.2,2,0.6c0.4,0.4,0.7,1,0.7,1.7c0,0.7-0.2,1.2-0.6,1.6c-0.4,0.4-0.9,0.6-1.6,0.7l2.3,3.3H165.6    L165.6,99.1z"></path>
		<path class="st1" d="M170.1,92.1c-0.5,0.3-0.8,0.7-1.1,1.2c-0.3,0.5-0.4,1.1-0.4,1.8c0,0.7,0.1,1.3,0.4,1.8    c0.3,0.5,0.6,0.9,1.1,1.2c0.5,0.3,1,0.4,1.6,0.4c0.6,0,1.1-0.1,1.6-0.4c0.5-0.3,0.8-0.7,1.1-1.2c0.3-0.5,0.4-1.1,0.4-1.8    c0-0.7-0.1-1.3-0.4-1.8c-0.3-0.5-0.6-0.9-1.1-1.2c-0.5-0.3-1-0.4-1.6-0.4C171.1,91.7,170.6,91.9,170.1,92.1L170.1,92.1z     M173.7,91.5c0.6,0.3,1.1,0.8,1.4,1.4c0.3,0.6,0.5,1.3,0.5,2.1c0,0.8-0.2,1.5-0.5,2.1c-0.3,0.6-0.8,1.1-1.4,1.5    c-0.6,0.3-1.3,0.5-2,0.5c-0.7,0-1.4-0.2-2-0.5c-0.6-0.3-1.1-0.8-1.4-1.5c-0.3-0.6-0.5-1.3-0.5-2.1c0-0.8,0.2-1.5,0.5-2.1    c0.3-0.6,0.8-1.1,1.4-1.4c0.6-0.3,1.3-0.5,2-0.5C172.4,91,173.1,91.2,173.7,91.5L173.7,91.5z"></path>
		<path class="st1" d="M178,91.1v4.8c0,0.9,0.2,1.5,0.6,1.9c0.4,0.4,0.9,0.6,1.5,0.6c0.6,0,1.2-0.2,1.5-0.6c0.4-0.4,0.6-1,0.6-1.9    v-4.8h0.8v4.8c0,1.1-0.3,1.9-0.8,2.4c-0.5,0.5-1.2,0.8-2.1,0.8c-0.9,0-1.6-0.3-2.1-0.8c-0.5-0.5-0.8-1.3-0.8-2.4v-4.8H178    L178,91.1z"></path>
		<path class="st1" d="M188.7,94.6c0.3-0.3,0.5-0.7,0.5-1.2c0-0.5-0.2-1-0.5-1.2c-0.3-0.3-0.8-0.4-1.5-0.4h-1.5v3.3h1.5    C187.9,95.1,188.4,94.9,188.7,94.6L188.7,94.6z M185.7,95.7v3.3h-0.8v-8h2.4c0.9,0,1.6,0.2,2,0.6c0.4,0.4,0.7,1,0.7,1.7    c0,0.7-0.2,1.3-0.7,1.7c-0.5,0.4-1.1,0.6-2,0.6H185.7L185.7,95.7z"></path>
		<path class="st1" d="M200.6,91.7c0.6,0.5,1.1,1.1,1.3,1.9h-0.8c-0.2-0.6-0.6-1-1.1-1.4c-0.5-0.3-1.1-0.5-1.8-0.5    c-0.5,0-1,0.1-1.5,0.4c-0.4,0.3-0.8,0.7-1.1,1.2c-0.3,0.5-0.4,1.1-0.4,1.8c0,0.7,0.1,1.3,0.4,1.8c0.3,0.5,0.6,0.9,1.1,1.2    c0.5,0.3,1,0.4,1.5,0.4c0.7,0,1.3-0.2,1.8-0.5c0.5-0.3,0.8-0.8,1.1-1.4h0.8c-0.3,0.8-0.7,1.5-1.3,1.9c-0.6,0.5-1.4,0.7-2.4,0.7    c-0.7,0-1.4-0.2-2-0.5s-1-0.8-1.3-1.4c-0.3-0.6-0.5-1.3-0.5-2.1c0-0.8,0.2-1.5,0.5-2.1c0.3-0.6,0.8-1.1,1.3-1.4    c0.6-0.3,1.2-0.5,2-0.5C199.2,91,200,91.2,200.6,91.7L200.6,91.7z"></path>
		<path class="st1" d="M205.7,92.1c-0.5,0.3-0.8,0.7-1.1,1.2c-0.3,0.5-0.4,1.1-0.4,1.8c0,0.7,0.1,1.3,0.4,1.8    c0.3,0.5,0.6,0.9,1.1,1.2c0.5,0.3,1,0.4,1.6,0.4c0.6,0,1.1-0.1,1.6-0.4c0.5-0.3,0.8-0.7,1.1-1.2c0.3-0.5,0.4-1.1,0.4-1.8    c0-0.7-0.1-1.3-0.4-1.8c-0.3-0.5-0.6-0.9-1.1-1.2c-0.5-0.3-1-0.4-1.6-0.4C206.7,91.7,206.2,91.9,205.7,92.1L205.7,92.1z     M209.3,91.5c0.6,0.3,1,0.8,1.4,1.4c0.3,0.6,0.5,1.3,0.5,2.1c0,0.8-0.2,1.5-0.5,2.1c-0.3,0.6-0.8,1.1-1.4,1.5    c-0.6,0.3-1.3,0.5-2,0.5c-0.7,0-1.4-0.2-2-0.5c-0.6-0.3-1.1-0.8-1.4-1.5c-0.3-0.6-0.5-1.3-0.5-2.1c0-0.8,0.2-1.5,0.5-2.1    c0.3-0.6,0.8-1.1,1.4-1.4c0.6-0.3,1.3-0.5,2-0.5C208,91,208.7,91.2,209.3,91.5L209.3,91.5z"></path>
		<polygon class="st1" points="220.6,91.3 220.6,99.1 219.9,99.1 219.9,92.5 217.2,99.1 216.4,99.1 213.7,92.6 213.7,99.1     212.9,99.1 212.9,91.3 213.9,91.3 216.8,98.1 219.7,91.3 220.6,91.3   "></polygon>
		<path class="st1" d="M226.5,94.6c0.3-0.3,0.5-0.7,0.5-1.2c0-0.5-0.2-1-0.5-1.2c-0.3-0.3-0.8-0.4-1.5-0.4h-1.5v3.3h1.5    C225.7,95.1,226.2,94.9,226.5,94.6L226.5,94.6z M223.5,95.7v3.3h-0.8v-8h2.4c0.9,0,1.6,0.2,2,0.6c0.4,0.4,0.7,1,0.7,1.7    c0,0.7-0.2,1.3-0.7,1.7c-0.5,0.4-1.1,0.6-2,0.6H223.5L223.5,95.7z"></path>
		<path class="st1" d="M233.6,96.5l-1.6-4.3l-1.6,4.3H233.6L233.6,96.5z M233.9,97.1h-3.6l-0.7,1.9h-0.8l2.9-7.8h0.9l2.9,7.8h-0.9    L233.9,97.1L233.9,97.1z"></path>
		<polygon class="st1" points="242.8,99.1 242,99.1 237.6,92.4 237.6,99.1 236.8,99.1 236.8,91.1 237.6,91.1 242,97.8 242,91.1     242.8,91.1 242.8,99.1   "></polygon>
		<polygon class="st1" points="250.1,91.1 247.6,96 247.6,99.1 246.8,99.1 246.8,96 244.2,91.1 245.1,91.1 247.2,95.1 249.2,91.1     250.1,91.1   "></polygon>
		<path class="st1" d="M83.3,96.2l-1.6-4.3l-1.6,4.3H83.3L83.3,96.2z M83.5,96.8h-3.6l-0.7,1.9h-0.8l2.9-7.8h0.9l2.9,7.8h-0.9    L83.5,96.8L83.5,96.8z"></path>
	</g>
	<g>
		<path class="st1" d="M9.7,73.5c-0.1,1.3-0.6,2.3-1.4,3s-2,1.1-3.4,1.1c-1.5,0-2.7-0.5-3.6-1.5c-0.9-1-1.3-2.4-1.3-4.2v-0.7    c0-1.1,0.2-2.2,0.6-3c0.4-0.9,1-1.5,1.7-2C3.1,65.6,4,65.4,5,65.4c1.4,0,2.5,0.4,3.3,1.1c0.8,0.7,1.3,1.8,1.5,3.1H7.3    c-0.1-0.8-0.3-1.3-0.6-1.7c-0.4-0.3-0.9-0.5-1.7-0.5c-0.8,0-1.4,0.3-1.8,0.9c-0.4,0.6-0.6,1.5-0.6,2.7v0.9c0,1.3,0.2,2.2,0.6,2.8    s1,0.9,1.8,0.9c0.8,0,1.3-0.2,1.7-0.5c0.4-0.3,0.6-0.9,0.6-1.6H9.7z"></path>
		<path class="st1" d="M24.5,71.8c0,1.2-0.2,2.2-0.6,3.1c-0.4,0.9-1,1.6-1.8,2c-0.8,0.5-1.7,0.7-2.7,0.7c-1,0-1.9-0.2-2.6-0.7    c-0.8-0.5-1.4-1.2-1.8-2c-0.4-0.9-0.6-1.9-0.6-3v-0.6c0-1.2,0.2-2.2,0.6-3.1c0.4-0.9,1-1.6,1.8-2.1c0.8-0.5,1.7-0.7,2.7-0.7    c1,0,1.9,0.2,2.7,0.7c0.8,0.5,1.4,1.2,1.8,2.1c0.4,0.9,0.6,1.9,0.6,3.1V71.8z M22,71.3c0-1.3-0.2-2.2-0.7-2.9s-1.1-1-1.9-1    c-0.8,0-1.5,0.3-1.9,1c-0.4,0.6-0.7,1.6-0.7,2.8v0.6c0,1.2,0.2,2.2,0.7,2.8c0.4,0.7,1.1,1,1.9,1c0.8,0,1.5-0.3,1.9-1    c0.4-0.6,0.7-1.6,0.7-2.8V71.3z"></path>
		<path class="st1" d="M39.4,77.5h-2.5l-4.8-7.9v7.9h-2.5V65.6h2.5l4.8,7.9v-7.9h2.5V77.5z"></path>
		<path class="st1" d="M53.6,67.6H50v9.9h-2.5v-9.9h-3.6v-2h9.7V67.6z"></path>
		<path class="st1" d="M64.1,75h-4.3L59,77.5h-2.6l4.4-11.9h2.3l4.5,11.9H65L64.1,75z M60.5,73.1h3L62,68.6L60.5,73.1z"></path>
		<path class="st1" d="M74.7,77.5h-2.5V65.6h2.5V77.5z"></path>
		<path class="st1" d="M90,77.5h-2.5l-4.8-7.9v7.9h-2.5V65.6h2.5l4.8,7.9v-7.9H90V77.5z"></path>
		<path class="st1" d="M102.7,72.3H98v3.2h5.5v2h-8V65.6h8v2H98v2.8h4.7V72.3z"></path>
		<path class="st1" d="M112.7,73.1h-2v4.4h-2.5V65.6h4.4c1.4,0,2.5,0.3,3.3,0.9c0.8,0.6,1.1,1.5,1.1,2.7c0,0.8-0.2,1.5-0.5,2    c-0.4,0.5-0.9,1-1.6,1.3l2.6,4.9v0.1H115L112.7,73.1z M110.8,71.1h2c0.6,0,1.1-0.2,1.4-0.5c0.3-0.3,0.5-0.7,0.5-1.3    c0-0.6-0.2-1-0.5-1.3c-0.3-0.3-0.8-0.5-1.5-0.5h-2V71.1z"></path>
	</g>
	<g>
		<g>
			<path class="st1" d="M141.2,75.6h-4.3L136,78h-2.6l4.4-11.9h2.3l4.5,11.9H142L141.2,75.6z M137.5,73.6h3l-1.5-4.5L137.5,73.6z"></path>
			<path class="st1" d="M153.2,74.9c0-0.5-0.2-0.8-0.5-1.1c-0.3-0.2-0.9-0.5-1.8-0.8c-0.9-0.3-1.5-0.5-2-0.8c-1.4-0.7-2-1.7-2-3     c0-0.6,0.2-1.2,0.5-1.7c0.4-0.5,0.9-0.9,1.6-1.2c0.7-0.3,1.4-0.4,2.3-0.4c0.9,0,1.6,0.2,2.3,0.5c0.7,0.3,1.2,0.7,1.6,1.3     c0.4,0.6,0.6,1.2,0.6,1.9h-2.5c0-0.5-0.2-1-0.5-1.3c-0.3-0.3-0.8-0.5-1.5-0.5c-0.6,0-1.1,0.1-1.4,0.4c-0.3,0.3-0.5,0.6-0.5,1     c0,0.4,0.2,0.7,0.6,1s1,0.5,1.7,0.7c1.4,0.4,2.4,0.9,3.1,1.6c0.6,0.6,1,1.4,1,2.3c0,1-0.4,1.8-1.2,2.4c-0.8,0.6-1.8,0.9-3.2,0.9     c-0.9,0-1.8-0.2-2.5-0.5s-1.3-0.8-1.7-1.4c-0.4-0.6-0.6-1.3-0.6-2h2.5c0,1.3,0.8,2,2.4,2c0.6,0,1-0.1,1.4-0.4     C153,75.6,153.2,75.3,153.2,74.9z"></path>
		</g>
	</g>
	<g>
		<path class="st1" d="M178.9,75.6h-4.3l-0.8,2.5h-2.6l4.4-11.9h2.3l4.5,11.9h-2.6L178.9,75.6z M175.3,73.6h3l-1.5-4.5L175.3,73.6z"></path>
	</g>
	<g>
		<path class="st1" d="M204.3,75.1c0-0.5-0.2-0.8-0.5-1.1c-0.3-0.2-0.9-0.5-1.8-0.8c-0.9-0.3-1.5-0.5-2-0.8c-1.4-0.7-2-1.7-2-3    c0-0.6,0.2-1.2,0.5-1.7c0.4-0.5,0.9-0.9,1.6-1.2c0.7-0.3,1.4-0.4,2.3-0.4c0.9,0,1.6,0.2,2.3,0.5c0.7,0.3,1.2,0.7,1.6,1.3    c0.4,0.6,0.6,1.2,0.6,1.9h-2.5c0-0.5-0.2-1-0.5-1.3c-0.3-0.3-0.8-0.5-1.5-0.5c-0.6,0-1.1,0.1-1.4,0.4c-0.3,0.3-0.5,0.6-0.5,1    c0,0.4,0.2,0.7,0.6,1c0.4,0.3,1,0.5,1.7,0.7c1.4,0.4,2.4,0.9,3.1,1.6c0.6,0.6,1,1.4,1,2.3c0,1-0.4,1.8-1.2,2.4    c-0.8,0.6-1.8,0.9-3.2,0.9c-0.9,0-1.8-0.2-2.5-0.5c-0.8-0.3-1.3-0.8-1.7-1.4c-0.4-0.6-0.6-1.3-0.6-2h2.5c0,1.3,0.8,2,2.4,2    c0.6,0,1-0.1,1.4-0.4C204.1,75.8,204.3,75.5,204.3,75.1z"></path>
		<path class="st1" d="M221.5,72.5c0,1.2-0.2,2.2-0.6,3.1c-0.4,0.9-1,1.6-1.8,2c-0.8,0.5-1.7,0.7-2.7,0.7c-1,0-1.9-0.2-2.6-0.7    c-0.8-0.5-1.4-1.2-1.8-2c-0.4-0.9-0.6-1.9-0.6-3V72c0-1.2,0.2-2.2,0.6-3.1c0.4-0.9,1-1.6,1.8-2.1c0.8-0.5,1.7-0.7,2.7-0.7    c1,0,1.9,0.2,2.7,0.7c0.8,0.5,1.4,1.2,1.8,2.1c0.4,0.9,0.6,1.9,0.6,3.1V72.5z M219.1,71.9c0-1.3-0.2-2.2-0.7-2.9    c-0.4-0.7-1.1-1-1.9-1c-0.8,0-1.5,0.3-1.9,1c-0.4,0.6-0.7,1.6-0.7,2.8v0.6c0,1.2,0.2,2.2,0.7,2.8c0.4,0.7,1.1,1,1.9,1    c0.8,0,1.5-0.3,1.9-1c0.4-0.6,0.7-1.6,0.7-2.8V71.9z"></path>
		<path class="st1" d="M229.2,76.2h5.2v2h-7.7V66.3h2.5V76.2z"></path>
		<path class="st1" d="M248,66.3v7.9c0,1.3-0.4,2.3-1.2,3.1c-0.8,0.8-1.9,1.1-3.3,1.1c-1.4,0-2.5-0.4-3.3-1.1    c-0.8-0.7-1.2-1.8-1.3-3v-8h2.5v7.9c0,0.8,0.2,1.4,0.6,1.7c0.4,0.4,0.9,0.5,1.6,0.5c1.4,0,2.1-0.7,2.1-2.2v-7.9H248z"></path>
		<path class="st1" d="M262.3,68.2h-3.7v9.9h-2.5v-9.9h-3.6v-2h9.7V68.2z"></path>
		<path class="st1" d="M269.7,78.2h-2.5V66.3h2.5V78.2z"></path>
		<path class="st1" d="M285.1,72.5c0,1.2-0.2,2.2-0.6,3.1c-0.4,0.9-1,1.6-1.8,2c-0.8,0.5-1.7,0.7-2.7,0.7c-1,0-1.9-0.2-2.6-0.7    c-0.8-0.5-1.4-1.2-1.8-2c-0.4-0.9-0.6-1.9-0.6-3V72c0-1.2,0.2-2.2,0.6-3.1c0.4-0.9,1-1.6,1.8-2.1s1.7-0.7,2.7-0.7    c1,0,1.9,0.2,2.7,0.7c0.8,0.5,1.4,1.2,1.8,2.1c0.4,0.9,0.6,1.9,0.6,3.1V72.5z M282.7,71.9c0-1.3-0.2-2.2-0.7-2.9    c-0.4-0.7-1.1-1-1.9-1c-0.8,0-1.5,0.3-1.9,1c-0.4,0.6-0.7,1.6-0.7,2.8v0.6c0,1.2,0.2,2.2,0.7,2.8c0.4,0.7,1.1,1,1.9,1    c0.8,0,1.5-0.3,1.9-1c0.4-0.6,0.7-1.6,0.7-2.8V71.9z"></path>
		<path class="st1" d="M300,78.2h-2.5l-4.8-7.9v7.9h-2.5V66.3h2.5l4.8,7.9v-7.9h2.5V78.2z"></path>
	</g>
</g>
</svg>
