<?xml version="1.0" encoding="UTF-8"?>
<svg xmlns="http://www.w3.org/2000/svg" width="55.433" height="55.517" viewBox="0 0 55.433 55.517">
  <g id="noun-rocket-2217248" transform="translate(-70.291 -13.44)">
    <g id="Path_68257" data-name="Path 68257" transform="translate(-47.383)" fill="#fff">
      <path d="M 152.5307922363281 62.68930435180664 C 152.5307464599609 62.68930435180664 152.53076171875 62.68930435180664 152.5307159423828 62.68930435180664 C 152.2333526611328 62.68929290771484 151.9379119873047 62.64836120605469 151.6524047851562 62.5676383972168 C 150.9963531494141 62.34791946411133 150.4496917724609 62.03189086914062 150.0712280273438 61.65342330932617 C 149.7705078125 61.35271835327148 149.5118560791016 60.94698715209961 149.2577362060547 60.37722396850586 L 147.5722961425781 55.82687377929688 L 147.3963775634766 55.35196304321289 L 146.9751281738281 55.63311386108398 L 146.7281036376953 55.79780578613281 L 146.4730834960938 55.96782302856445 C 142.7995147705078 58.27420425415039 140.38818359375 59.39547348022461 139.1016845703125 59.39547348022461 C 138.5195465087891 59.39547348022461 138.286865234375 59.16280364990234 138.0174560546875 58.89339447021484 L 127.7661285400391 48.64207458496094 L 127.7558288574219 48.63177490234375 C 127.424430847168 48.30066299438477 127.1114196777344 47.98792266845703 127.3089904785156 46.95517349243164 C 127.5754547119141 45.56235504150391 128.6816864013672 43.34870529174805 130.6911010742188 40.18743896484375 L 130.8644256591797 39.92741394042969 L 131.0264434814453 39.68436431884766 L 131.3074951171875 39.26314544677734 L 130.8326568603516 39.08725357055664 L 126.2752380371094 37.39918899536133 C 125.7529754638672 37.18955612182617 125.349609375 36.93182373046875 125.0061111450195 36.58832550048828 C 124.534538269043 36.11674499511719 124.2458801269531 35.6209831237793 124.0976791381836 35.02815628051758 L 124.0960693359375 35.02170562744141 L 124.09423828125 35.01531600952148 C 123.8056488037109 34.00481414794922 124.078727722168 32.82779312133789 124.8069229125977 31.94356536865234 L 131.1138610839844 24.3986644744873 C 133.3544158935547 21.77170372009277 136.6161346435547 20.26332473754883 140.0600891113281 20.26332473754883 C 141.4177551269531 20.26332473754883 142.7492980957031 20.50066375732422 144.0177154541016 20.9687442779541 L 146.8370361328125 21.9835147857666 L 147.02734375 22.05201530456543 L 147.1953277587891 21.93933486938477 C 156.2290496826172 15.87945461273193 166.5290679931641 13.84000492095947 169.8408050537109 13.84000492095947 C 171.4216156005859 13.84000492095947 172.7077178955078 15.12609481811523 172.7077178955078 16.70690536499023 C 172.7077178955078 18.3061637878418 172.2457885742188 21.6819953918457 170.9439544677734 25.93275451660156 C 169.8983612060547 29.34685516357422 167.9507141113281 34.44600296020508 164.6099853515625 39.35001373291016 L 164.4935302734375 39.52097320556641 L 164.5657196044922 39.71482467651367 L 165.6344299316406 42.58423614501953 C 167.2674407958984 47.16086959838867 165.8882446289062 52.34785079956055 162.2019958496094 55.49213409423828 L 154.7112579345703 61.85656356811523 L 154.7084197998047 61.85898590087891 L 154.7056274414062 61.86144638061523 C 154.1005554199219 62.39529037475586 153.3281555175781 62.68930435180664 152.5307922363281 62.68930435180664 Z M 151.8727874755859 59.31718826293945 C 151.9104156494141 59.61231994628906 152.1463317871094 59.74557495117188 152.3803100585938 59.74557495117188 C 152.6057281494141 59.74557495117188 152.7507476806641 59.64458084106445 152.8110961914062 59.59180450439453 L 160.29931640625 53.22929382324219 C 163.09423828125 50.9006462097168 164.1386108398438 46.98842620849609 162.8951263427734 43.4967041015625 L 162.892578125 43.48953628540039 L 162.8897552490234 43.48247528076172 L 162.6646270751953 42.9190559387207 L 162.4194641113281 42.30550384521484 L 161.9894866943359 42.80716323852539 C 161.3144683837891 43.59467315673828 160.6396179199219 44.32421493530273 159.9263610839844 45.0374755859375 C 155.9891052246094 48.9747428894043 152.3896636962891 51.78201293945312 150.0634460449219 53.44370269775391 L 149.8168182373047 53.6198844909668 L 149.9196929931641 53.90497589111328 L 151.8727874755859 59.31718826293945 Z M 139.3940887451172 56.16287994384766 L 139.5484771728516 56.40037536621094 L 139.8516845703125 56.28275299072266 C 140.8076171875 55.91115570068359 142.7933044433594 54.89243316650391 145.4995574951172 53.1476936340332 L 145.9161376953125 52.87912368774414 L 145.5656585693359 52.52866363525391 L 134.0751953125 41.03818511962891 L 133.7246704101562 40.68765258789062 L 133.4561309814453 41.10434341430664 C 131.712890625 43.809326171875 130.6938934326172 45.79551315307617 130.3215484619141 46.75231552124023 L 130.2268676757812 46.99561309814453 L 130.4114685058594 47.18022537231445 L 139.3940887451172 56.16287994384766 Z M 158.5063629150391 19.45128440856934 L 158.2638702392578 19.54433441162109 C 154.1832580566406 21.11014366149902 148.3254547119141 23.97018432617188 143.5922393798828 28.70340538024902 C 140.6784057617188 31.61685371398926 137.9925384521484 34.75981521606445 135.6092681884766 38.0449333190918 L 135.4083404541016 38.32190322875977 L 135.6508483886719 38.56330490112305 L 148.0988616943359 50.95500564575195 L 148.3425903320312 51.19763565063477 L 148.6190185546875 50.99304580688477 C 152.0114593505859 48.48225784301758 154.9749603271484 45.96319198608398 157.6660919189453 43.30206680297852 L 157.6668853759766 43.30290603637695 L 157.9576568603516 43.01251602172852 C 162.6659240722656 38.304443359375 165.536865234375 32.46680450439453 167.1161804199219 28.39867401123047 L 167.2105865478516 28.15551376342773 L 167.0261383056641 27.9710750579834 L 158.6900177001953 19.63494491577148 L 158.5063629150391 19.45128440856934 Z M 127.2501525878906 34.66228485107422 L 132.6956939697266 36.68336486816406 L 132.9785766601562 36.78835296630859 L 133.1572265625 36.54519271850586 C 135.8742980957031 32.84698486328125 138.6434173583984 29.60075378417969 141.6228332519531 26.62101364135742 C 142.3358764648438 25.90786361694336 143.0654144287109 25.23303413391113 143.8531188964844 24.55794525146484 L 144.3732147216797 24.11220359802246 L 143.7294158935547 23.87827491760254 L 143.1098175048828 23.65313529968262 C 142.1690368652344 23.31255531311035 141.1775817871094 23.13994407653809 140.1625366210938 23.13994407653809 C 137.5687103271484 23.13994407653809 135.0313262939453 24.30194473266602 133.375 26.24829483032227 L 127.0192108154297 33.72890090942383 C 126.8820953369141 33.87088394165039 126.858512878418 33.98088073730469 126.858512878418 34.16782379150391 L 126.858512878418 34.2625846862793 L 126.9010238647461 34.34726333618164 C 127.0038146972656 34.55205917358398 127.1455154418945 34.63179016113281 127.2501525878906 34.66228485107422 Z M 169.8629913330078 16.74115371704102 L 169.4313049316406 16.75781440734863 C 168.0876617431641 16.80965423583984 165.4627532958984 17.21090507507324 162.1253051757812 18.18156433105469 L 161.4760589599609 18.37039375305176 L 161.9541778564453 18.8484935760498 L 167.7557525634766 24.65006446838379 L 168.2338104248047 25.12812423706055 L 168.4226684570312 24.47896385192871 C 169.3938293457031 21.14084434509277 169.7949066162109 18.51611518859863 169.846435546875 17.17284393310547 L 169.8629913330078 16.74115371704102 Z" stroke="none"></path>
      <path d="M 152.5308074951172 62.28930282592773 L 152.5307769775391 62.28930282592773 C 153.2306365966797 62.28930282592773 153.9090270996094 62.03083419799805 154.4409942626953 61.56150436401367 L 154.4522705078125 61.55173492431641 L 161.9424133300781 55.18780517578125 C 165.5025024414062 52.15114593505859 166.8348388671875 47.14192962646484 165.2586212158203 42.72126007080078 L 164.0464782714844 39.46673583984375 L 164.2794036865234 39.12481307983398 C 170.2861480712891 30.3072338104248 172.3077087402344 20.03785514831543 172.3077087402344 16.70690536499023 C 172.3077087402344 15.34665489196777 171.2010650634766 14.24000453948975 169.8408050537109 14.24000453948975 C 166.5672149658203 14.24000453948975 156.3762359619141 16.26237487792969 147.4181518554688 22.27152442932129 L 147.0821990966797 22.49688529968262 L 143.8792266845703 21.34400367736816 C 142.6553039550781 20.8923454284668 141.3703765869141 20.6633243560791 140.0600891113281 20.6633243560791 C 136.7348480224609 20.6633243560791 133.5851745605469 22.11946105957031 131.4182586669922 24.65819931030273 L 125.1138153076172 32.20013046264648 C 124.4694137573242 32.98405838012695 124.2260971069336 34.02042007446289 124.4788589477539 34.90547561645508 L 124.4857406616211 34.93114471435547 C 124.6156005859375 35.45064544677734 124.8708419799805 35.88735580444336 125.288948059082 36.30548477172852 C 125.5960998535156 36.61262512207031 125.9450988769531 36.83512496948242 126.4194564819336 37.02606201171875 L 131.9212951660156 39.06393432617188 L 131.0262145996094 40.40587997436523 C 129.0733947753906 43.4785270690918 127.9550018310547 45.70717620849609 127.7018737792969 47.03033447265625 C 127.5441436767578 47.85483551025391 127.7302322387695 48.04076385498047 128.0385437011719 48.34880447387695 L 128.0489807128906 48.35922622680664 L 138.3003082275391 58.61054611206055 C 138.5565948486328 58.8668327331543 138.6852264404297 58.99547576904297 139.1016845703125 58.99547576904297 C 140.2934112548828 58.99547576904297 142.7002410888672 57.86391067504883 146.2556610107422 55.63202285766602 L 147.5955657958984 54.73810577392578 L 149.6282196044922 60.22586059570312 C 149.8600311279297 60.74335479736328 150.0910034179688 61.10750961303711 150.3540649414062 61.37057495117188 C 150.6873016357422 61.70381164550781 151.1767730712891 61.98532485961914 151.7703399658203 62.18528366088867 C 152.0175933837891 62.25430297851562 152.2733612060547 62.2892951965332 152.5308074951172 62.28930282592773 M 151.4841156005859 59.41857147216797 L 149.3376770019531 53.47056579589844 L 149.8309326171875 53.11822509765625 C 152.1448822021484 51.46530532836914 155.7256011962891 48.67255401611328 159.6435241699219 44.75462341308594 C 160.3494720458984 44.04868316650391 161.0175018310547 43.32651519775391 161.6857757568359 42.54684448242188 L 162.5457458496094 41.54352569580078 L 163.2719573974609 43.36250305175781 C 164.5709381103516 47.01012802124023 163.4793395996094 51.09811401367188 160.5556335449219 53.5363883972168 L 153.0731048583984 59.89406204223633 C 152.9612731933594 59.9915657043457 152.7293243408203 60.14557266235352 152.3803100585938 60.14557266235352 C 151.9156494140625 60.14557266235352 151.5629119873047 59.84922790527344 151.4841156005859 59.41857147216797 M 139.0816192626953 56.41609191894531 L 129.7594146728516 47.09385299682617 L 129.9487762451172 46.60725402832031 C 130.3282165527344 45.63224411010742 131.3605194091797 43.61768341064453 133.1199035644531 40.88765335083008 L 133.656982421875 40.05427551269531 L 146.5494384765625 52.94675445556641 L 145.71630859375 53.48388290405273 C 142.9849548339844 55.24480438232422 140.9707946777344 56.27688598632812 139.9966125488281 56.65557479858398 L 139.3903045654297 56.89101409912109 L 139.0816192626953 56.41609191894531 M 158.6055450439453 18.98478507995605 L 167.6778564453125 28.05711364746094 L 167.4890594482422 28.54343414306641 C 165.8958282470703 32.64738464355469 162.9980010986328 38.53806304931641 158.2404937744141 43.29536437988281 L 157.6591339111328 43.87632369995117 L 157.6559906005859 43.87301635742188 C 155.0289764404297 46.44218826293945 152.1429290771484 48.88259506225586 148.8569793701172 51.3145637512207 L 148.3041229248047 51.7237434387207 L 134.8836364746094 38.36398315429688 L 135.2855072021484 37.81004333496094 C 137.6811065673828 34.5079345703125 140.3807373046875 31.34884452819824 143.3094024658203 28.42055511474609 C 148.0923309326172 23.63763427734375 154.0037384033203 20.75059509277344 158.1205749511719 19.17088508605957 L 158.6055450439453 18.98478507995605 M 127.1437225341797 35.0494499206543 C 126.8937149047852 34.97953033447266 126.6781463623047 34.79490661621094 126.5435333251953 34.52671432495117 L 126.4585113525391 34.35733413696289 L 126.4585113525391 34.16782379150391 C 126.4585113525391 33.91167831420898 126.5041046142578 33.692138671875 126.7215423583984 33.46147918701172 L 133.0703735351562 25.98905372619629 C 134.8016967773438 23.95456504821777 137.4529724121094 22.73994445800781 140.1625366210938 22.73994445800781 C 141.2241516113281 22.73994445800781 142.2614135742188 22.92058372497559 143.2464141845703 23.27718544006348 L 145.1536254882812 23.97017478942871 L 144.1134033203125 24.86166381835938 C 143.3335571289062 25.53001403808594 142.6114196777344 26.1980152130127 141.9057006835938 26.90383529663086 C 138.9407348632812 29.86911392211914 136.1845397949219 33.10029602050781 133.4795684814453 36.78202438354492 L 133.1222686767578 37.26835632324219 L 127.1437225341797 35.0494499206543 M 170.2792663574219 16.32479476928711 L 170.2461395263672 17.18817520141602 C 170.1937103271484 18.55521392822266 169.7880401611328 21.21775436401367 168.8067474365234 24.5907039642334 L 168.4290161132812 25.88902473449707 L 160.7151184082031 18.17513465881348 L 162.0135955810547 17.7974853515625 C 165.3858337402344 16.81670379638672 168.0485076904297 16.41087532043457 169.4158782958984 16.35810470581055 L 170.2792663574219 16.32479476928711 M 152.5307006835938 63.08930206298828 C 152.1963806152344 63.08929443359375 151.8610382080078 63.04323196411133 151.5343780517578 62.94993591308594 C 150.8586578369141 62.72481536865234 150.2390289306641 62.38691329956055 149.7883758544922 61.93626403808594 C 149.3939056396484 61.54178619384766 149.1121978759766 61.03495407104492 148.8870697021484 60.52812576293945 L 147.1971893310547 55.96581268310547 C 147.0282287597656 56.07858276367188 146.8592834472656 56.19094467163086 146.6903533935547 56.30371475219727 C 139.424560546875 60.86608123779297 138.4670104980469 59.90860366821289 137.734619140625 59.17623519897461 L 127.4832916259766 48.9249153137207 C 126.7509841918945 48.19298553466797 125.7369079589844 47.23503494262695 130.3558502197266 39.96920394897461 C 130.4686126708984 39.80025482177734 130.5809783935547 39.63130569458008 130.6937103271484 39.46235275268555 L 126.1314239501953 37.77248382568359 C 125.5680084228516 37.54696273803711 125.1177520751953 37.26564407348633 124.723274230957 36.87117385864258 C 124.2164611816406 36.36434555053711 123.8785629272461 35.80095291137695 123.7096176147461 35.12516403198242 C 123.3717498779297 33.94212341308594 123.7096176147461 32.64677429199219 124.4981536865234 31.68928527832031 L 130.8069610595703 24.14212417602539 C 134.0738525390625 20.31176948547363 139.4249420166016 18.84749794006348 144.1562042236328 20.59348487854004 L 146.9724884033203 21.60715484619141 C 156.0409698486328 15.52395439147949 166.4049377441406 13.44000434875488 169.8408050537109 13.44000434875488 C 171.6433258056641 13.44000434875488 173.1077117919922 14.90427494049072 173.1077117919922 16.70690536499023 C 173.1077117919922 20.14278411865234 171.0799865722656 30.56287384033203 164.9405670166016 39.57521438598633 L 166.0102386474609 42.44721603393555 C 167.6996917724609 47.17859268188477 166.2915802001953 52.52956390380859 162.4615936279297 55.79646301269531 L 154.9702606201172 62.16139602661133 C 154.2771911621094 62.77287673950195 153.4071350097656 63.08932876586914 152.5307006835938 63.08930206298828 Z M 162.2931823730469 43.06747436523438 C 161.6173553466797 43.8559455871582 160.9415740966797 44.58795547485352 160.2091979980469 45.32031631469727 C 156.6043548583984 48.92517471313477 153.0560302734375 51.79758453369141 150.2959442138672 53.76919555664062 L 152.267578125 59.23281478881836 C 152.267578125 59.28938293457031 152.267578125 59.34557342529297 152.3803100585938 59.34557342529297 C 152.4930725097656 59.34557342529297 152.5492553710938 59.28938293457031 152.5492553710938 59.28938293457031 L 160.0403137207031 52.92446517944336 L 160.0402679443359 52.92447280883789 C 162.7442169189453 50.67163467407227 163.7017517089844 46.95402526855469 162.518310546875 43.63089370727539 L 162.2931823730469 43.06747436523438 Z M 133.7923583984375 41.32102584838867 C 132.15869140625 43.85598373413086 131.0887908935547 45.88371276855469 130.6943054199219 46.89738464355469 L 139.7067565917969 55.90993499755859 C 140.7205200195312 55.51585388183594 142.7482604980469 54.44555282592773 145.2828216552734 52.81150436401367 L 133.7923583984375 41.32102584838867 Z M 158.4071655273438 19.91778373718262 C 153.5631256103516 21.77653503417969 148.1557464599609 24.7055835723877 143.8750762939453 28.98624420166016 C 140.6642913818359 32.19662475585938 138.0169830322266 35.40730285644531 135.9330444335938 38.27982330322266 L 148.3810577392578 50.67152404785156 C 151.1973266601562 48.58716583251953 154.4638366699219 45.94025421142578 157.6746368408203 42.72947311401367 L 157.6748199462891 42.72966384887695 C 161.9557800292969 38.44889450073242 164.8845367431641 33.04181289672852 166.7432861328125 28.25391387939453 L 158.4071655273438 19.91778373718262 Z M 140.1625366210938 23.53994369506836 C 137.7178039550781 23.53994369506836 135.3033905029297 24.59943199157715 133.6796264648438 26.50752449035645 L 127.3147125244141 33.99887466430664 C 127.2585144042969 34.0550651550293 127.2585144042969 34.0550651550293 127.2585144042969 34.16782379150391 C 127.3151092529297 34.28058624267578 127.3712844848633 34.28058624267578 127.3712844848633 34.28058624267578 L 132.8348693847656 36.30836486816406 C 134.8626861572266 33.54829406738281 137.6790008544922 29.99956512451172 141.3399810791016 26.33818435668945 C 142.0719146728516 25.60614395141602 142.8042907714844 24.93001365661621 143.5928192138672 24.25422477722168 L 142.9732055664062 24.02908515930176 C 142.0610809326172 23.69887733459473 141.1096496582031 23.53994369506836 140.1625366210938 23.53994369506836 Z M 169.4467315673828 17.15751457214355 C 167.9819793701172 17.21403503417969 165.3346405029297 17.66474533081055 162.2370147705078 18.56565475463867 L 168.0385894775391 24.36722373962402 C 168.9398956298828 21.26920509338379 169.3905639648438 18.62188529968262 169.4467315673828 17.15751457214355 Z" stroke="none" fill="#2f2f2f"></path>
    </g>
    <path id="Path_68258" data-name="Path 68258" d="M-4151.388,4143.019c-.762-.393-1.278.089-1.762.57q-3.813,3.792-7.612,7.6c-.646.65-1.395,1.405-.436,2.264.918.825,1.646.04,2.288-.6q3.653-3.634,7.287-7.292a2.376,2.376,0,0,0,.939-1.557A1.227,1.227,0,0,0-4151.388,4143.019Z" transform="translate(4239.522 -4084.854)" fill="#fff"></path>
    <path id="Path_68259" data-name="Path 68259" d="M-4175.88,4135.965q3.708-3.688,7.4-7.4a2.072,2.072,0,0,0,.87-1.486,1.242,1.242,0,0,0-.749-1.031c-.768-.36-1.263.162-1.736.632q-3.788,3.767-7.562,7.548c-.651.652-1.362,1.4-.481,2.265S-4176.52,4136.6-4175.88,4135.965Z" transform="translate(4248.844 -4075.509)" fill="#fff"></path>
    <path id="Path_68260" data-name="Path 68260" d="M-4167.49,4143.287a1.119,1.119,0,0,0-1.211-.56,1.36,1.36,0,0,0-.519.215c-2.906,2.876-5.812,5.753-8.68,8.668a1.077,1.077,0,0,0,.082,1.605,1.1,1.1,0,0,0,1.611.02q4.3-4.219,8.535-8.5A1.165,1.165,0,0,0-4167.49,4143.287Z" transform="translate(4248.661 -4084.769)" fill="#fff"></path>
    <g id="Ellipse_1171" data-name="Ellipse 1171" transform="translate(99.92 29.528)" fill="none" stroke="#fff" stroke-width="2">
      <ellipse cx="5" cy="4.868" rx="5" ry="4.868" stroke="none"></ellipse>
      <ellipse cx="5" cy="4.868" rx="4" ry="3.868" fill="none"></ellipse>
    </g>
  </g>
</svg>
