<?xml version="1.0" encoding="UTF-8"?>
<svg xmlns="http://www.w3.org/2000/svg" width="51.985" height="55.481" viewBox="0 0 51.985 55.481">
  <g id="Group_123752" data-name="Group 123752" transform="translate(-182.001 -2066.701)">
    <g id="Group_123665" data-name="Group 123665" transform="translate(-15.373 1448.761)">
      <g id="Group_123671" data-name="Group 123671">
        <g id="Group_123664" data-name="Group 123664">
          <g id="Ellipse_1161" data-name="Ellipse 1161">
            <g id="Path_68173" data-name="Path 68173">
              <g id="Path_68186" data-name="Path 68186">
                <path id="Path_68262" data-name="Path 68262" d="M211.5,663.852c-6.482,0-11.23-2.177-13.117-6.044-1.672-3.433-.918-7.834,2.124-12.393l.138-.2a36.008,36.008,0,0,1,8.72-8.661l.242-.174a51.4,51.4,0,0,1,13.072-6.684c.115-.042.239-.084.364-.123a40.374,40.374,0,0,1,10.993-2.125l.232-.009c6.986-.222,12.107,1.968,14.084,6.027,1.671,3.429.918,7.824-2.118,12.38l-.123.186a36.037,36.037,0,0,1-8.744,8.7l-.247.177a51.348,51.348,0,0,1-13.02,6.663l-.361.123a40.5,40.5,0,0,1-11.025,2.135l-.231.01C212.148,663.852,211.821,663.852,211.5,663.852Zm23.772-34.793c-.283,0-.571,0-.863.013l-.218.009a38.542,38.542,0,0,0-10.354,1.96l-.341.112a49.723,49.723,0,0,0-5.98,2.45,49.046,49.046,0,0,0-7.116,4.234l-.242.175a34.016,34.016,0,0,0-8.207,8.2l-.09.133c-2.682,4.048-3.377,7.84-1.978,10.71,1.672,3.435,6.215,5.316,12.454,5.1h.251a38.6,38.6,0,0,0,10.349-1.97l.35-.116a49.646,49.646,0,0,0,5.934-2.43,48.77,48.77,0,0,0,7.109-4.23l.244-.176a34.063,34.063,0,0,0,8.221-8.219l.11-.165c2.657-4.009,3.349-7.8,1.947-10.68-1.6-3.262-5.792-5.1-11.583-5.1Z" fill="#fff"></path>
              </g>
            </g>
            <g id="Group_123665-2" data-name="Group 123665-2">
              <g id="Path_68174" data-name="Path 68174">
                <g id="Path_68187" data-name="Path 68187">
                  <path id="Path_68263" data-name="Path 68263" d="M211.456,663.864c-6.44,0-11.207-2.2-13.078-6.051-1.668-3.422-.934-7.8,2.067-12.322l.139-.2a35.684,35.684,0,0,1,8.514-8.54l.332-.242a50.462,50.462,0,0,1,7.35-4.369,51.123,51.123,0,0,1,6.179-2.53l.367-.122a40.522,40.522,0,0,1,10.79-2.038l.22-.009c6.926-.213,12.042,1.99,14.015,6.038,1.664,3.417.934,7.791-2.057,12.313l-.128.193a35.793,35.793,0,0,1-8.543,8.568l-.323.238a50.5,50.5,0,0,1-7.351,4.373,51.674,51.674,0,0,1-6.134,2.517l-.354.119a40.678,40.678,0,0,1-10.831,2.054h-.274C212.067,663.859,211.758,663.864,211.456,663.864Zm-10.006-17.8.566.461c-2.618,3.95-3.307,7.664-1.944,10.461,1.63,3.354,6.086,5.177,12.254,4.978h.167A38.725,38.725,0,0,0,222.865,660l.347-.116a49.848,49.848,0,0,0,5.909-2.427,48.747,48.747,0,0,0,7.08-4.211l.167-.117a34.2,34.2,0,0,0,8.245-8.223l.1-.154c2.612-3.953,3.3-7.664,1.939-10.457-1.632-3.354-6.1-5.177-12.236-4.982l-.213.009a38.662,38.662,0,0,0-10.306,1.941l-.3.1a49.5,49.5,0,0,0-6,2.457,48.713,48.713,0,0,0-7.086,4.214l-.232.168a33.917,33.917,0,0,0-8.162,8.156Z" fill="#fff"></path>
                </g>
              </g>
            </g>
          </g>
          <g id="Ellipse_1162" data-name="Ellipse 1162">
            <g id="Group_123667" data-name="Group 123667">
              <g id="Path_68177" data-name="Path 68177">
                <g id="Path_68188" data-name="Path 68188">
                  <path id="Path_68264" data-name="Path 68264" d="M223.58,673.421c-4.5,0-8.713-3.619-11.553-9.93l-.619-1.482,1.355-.049A38.747,38.747,0,0,0,223.082,660l.558-.187,1.333.363a72.335,72.335,0,0,0,9.556,1.585l1.307.041-.512,1.255c-.035.09-.074.177-.116.261C232.384,669.728,228.141,673.421,223.58,673.421Zm-9.346-9.672c2.483,4.965,5.854,7.788,9.346,7.788,3.552,0,6.965-2.907,9.459-8.017a56.46,56.46,0,0,1-5.677-.941c-.075-.013-2.4-.441-3.561-.791l-.071-.022-.068.023A40.828,40.828,0,0,1,214.234,663.749Z" fill="#fff"></path>
                </g>
              </g>
            </g>
          </g>
          <g id="Ellipse_1163" data-name="Ellipse 1163">
            <g id="Path_68178" data-name="Path 68178">
              <g id="Path_68189" data-name="Path 68189">
                <path id="Path_68265" data-name="Path 68265" d="M235.05,663.626c-.228,0-.457,0-.689-.007h-.212a40.531,40.531,0,0,1-10.856-1.934l-2.486-.783,2.476-.82a49.646,49.646,0,0,0,5.934-2.43,48.77,48.77,0,0,0,7.109-4.23l.244-.176a34.063,34.063,0,0,0,8.221-8.219l.679-1.055.76,1.06c3.11,4.5,3.935,8.88,2.325,12.326C246.69,661.362,241.787,663.626,235.05,663.626Zm-.586-1.646c6.181.119,10.689-1.7,12.438-5.026l.133-.284c1.253-2.678.7-6.115-1.564-9.759a36.058,36.058,0,0,1-8.108,7.825l-.247.176a51.388,51.388,0,0,1-10.921,5.9,38.8,38.8,0,0,0,8.071,1.172Zm-33.19-14.712-.779-1.046c-3.1-4.492-3.929-8.88-2.316-12.332,1.926-4.134,7.106-6.4,14.193-6.26h1.391l-.532,1.053a1.419,1.419,0,0,0-.062.138,37.491,37.491,0,0,0-2.092,6.558,51.3,51.3,0,0,1,11.6-5.679c.115-.042.239-.084.364-.123l.226-.073,2.688.92-2.443.757a49.48,49.48,0,0,0-6,2.456,48.888,48.888,0,0,0-7.115,4.234l-.244.175a34.034,34.034,0,0,0-8.207,8.2Zm10.223-18.2c-6.06.042-10.407,2-12,5.429-1.308,2.8-.682,6.414,1.758,10.235a35.5,35.5,0,0,1,8.056-7.87v-.019A38.8,38.8,0,0,1,211.5,629.073Z" fill="#fff"></path>
              </g>
            </g>
            <g id="Group_123668" data-name="Group 123668">
              <g id="Path_68179" data-name="Path 68179">
                <g id="Path_68190" data-name="Path 68190">
                  <path id="Path_68266" data-name="Path 68266" d="M208.909,639.194l.4-2.285a38.826,38.826,0,0,1,2.525-8.615,2.836,2.836,0,0,1,.119-.264c2.817-6.4,7.06-10.09,11.62-10.09,4.508,0,8.723,3.628,11.563,9.952l.58,1.271-1.4.055a39.079,39.079,0,0,0-10.548,2.042l-.336.113a49.764,49.764,0,0,0-12.653,6.468Zm14.672-19.37c-3.779,0-7.4,3.285-9.926,9.016l-.081.178a36.722,36.722,0,0,0-1.955,5.988,51.776,51.776,0,0,1,11.2-5.41l.37-.123a41.206,41.206,0,0,1,9.646-2.036c-2.472-4.853-5.806-7.612-9.25-7.612Z" fill="#fff"></path>
                </g>
              </g>
            </g>
            <g id="Group_123669" data-name="Group 123669">
              <g id="Path_68180" data-name="Path 68180">
                <g id="Path_68191" data-name="Path 68191">
                  <path id="Path_68267" data-name="Path 68267" d="M234.86,663.535h-.85a40.28,40.28,0,0,1-10.651-1.855l-2.766-.856,2.744-.936a49.528,49.528,0,0,0,5.663-2.34,48.989,48.989,0,0,0,6.933-4.106l.22-.154a34.586,34.586,0,0,0,8.371-8.3l.767-1.13.78,1.142c3.068,4.469,3.873,8.828,2.267,12.274C246.469,661.255,241.56,663.535,234.86,663.535Zm-.686-1.9c6.326.116,10.857-1.758,12.451-5.183,1.184-2.538.688-5.809-1.388-9.286a36.753,36.753,0,0,1-7.968,7.617l-.265.181a50.857,50.857,0,0,1-7.183,4.257c-1.028.5-2.08.976-3.142,1.411a37.89,37.89,0,0,0,7.374,1.005Z" fill="#fff"></path>
                </g>
              </g>
            </g>
            <g id="Group_123670" data-name="Group 123670">
              <g id="Path_68181" data-name="Path 68181">
                <g id="Path_68192" data-name="Path 68192">
                  <path id="Path_68268" data-name="Path 68268" d="M201.8,647.072l-.914-1.334c-3.076-4.473-3.884-8.838-2.276-12.29,1.925-4.131,7.065-6.426,14.109-6.275l1.6.084-.524,1.234a36.656,36.656,0,0,0-2.309,7.689,2.293,2.293,0,0,0-.08.473l-.083.3a6.68,6.68,0,0,1-.344.576l-.165.174a34.217,34.217,0,0,0-8.25,8.223Zm9.739-18.014c-5.653.113-9.726,1.989-11.217,5.186-1.208,2.594-.667,5.938,1.514,9.494a36,36,0,0,1,7.706-7.431l.007-.006a39.231,39.231,0,0,1,1.989-7.24Z" fill="#fff"></path>
                </g>
              </g>
            </g>
          </g>
        </g>
        <g id="Path_68182" data-name="Path 68182">
          <g id="Path_68193" data-name="Path 68193">
            <path id="Path_68269" data-name="Path 68269" d="M217.251,655.654a35.24,35.24,0,0,1-11.243-7.026c-.425-.36-.866-1.152-1.517-.525-.73.7.032,1.191.506,1.606a39.749,39.749,0,0,0,8.787,6.109c1.053.512,2.171.889,3.264,1.313a.774.774,0,0,0,1.15-.589C218.139,655.95,217.692,655.8,217.251,655.654Z" fill="#fff"></path>
          </g>
          <g id="Path_68194" data-name="Path 68194">
            <path id="Path_68270" data-name="Path 68270" d="M217.429,657.378a.932.932,0,0,1-.453-.12l-.84-.316c-.8-.3-1.632-.611-2.417-.992a40.044,40.044,0,0,1-8.822-6.133c-.045-.041-.1-.083-.148-.126-.325-.273-.693-.583-.706-.992a.948.948,0,0,1,.345-.7.812.812,0,0,1,.6-.276,1.377,1.377,0,0,1,.867.55,3.192,3.192,0,0,0,.248.245,35,35,0,0,0,11.2,7l-.052.135.067-.131c.448.155.956.329,1.024,1a.88.88,0,0,1-.116.387.9.9,0,0,1-.553.429A.923.923,0,0,1,217.429,657.378Zm-12.457-9.363a.573.573,0,0,0-.381.193.661.661,0,0,0-.257.482c.01.28.325.544.6.779l.157.132a39.763,39.763,0,0,0,8.757,6.091c.77.371,1.593.68,2.39.978.287.109.574.216.862.328a.636.636,0,0,0,.871-.223l0,0a.619.619,0,0,0,.078-.244c-.049-.461-.41-.586-.83-.728l-.025-.01a35.25,35.25,0,0,1-11.289-7.054c-.084-.071-.174-.167-.267-.263-.213-.222-.434-.454-.663-.458Z" fill="#fff"></path>
          </g>
        </g>
        <g id="Path_68183" data-name="Path 68183">
          <g id="Path_68195" data-name="Path 68195">
            <path id="Path_68271" data-name="Path 68271" d="M241.876,641.162c.551.257.853-.074.956-.587-.02-.551-.416-.84-.73-1.165a28.555,28.555,0,0,0-11.163-7.122c-.558-.2-1.352-.779-1.662.238-.261.84.592.962,1.136,1.155a27.469,27.469,0,0,1,10.538,6.691A3.593,3.593,0,0,0,241.876,641.162Z" fill="#fff"></path>
          </g>
          <g id="Path_68196" data-name="Path 68196">
            <path id="Path_68272" data-name="Path 68272" d="M242.228,641.4a.98.98,0,0,1-.412-.1l-.014-.007a3.758,3.758,0,0,1-.963-.822,27.492,27.492,0,0,0-10.474-6.648l-.231-.074c-.5-.158-1.263-.4-1-1.26a.921.921,0,0,1,.461-.622,1.4,1.4,0,0,1,1.1.173c.1.044.2.087.289.119a28.837,28.837,0,0,1,11.221,7.154c.048.049.1.1.149.148a1.611,1.611,0,0,1,.621,1.113.994.994,0,0,1-.458.759A.632.632,0,0,1,242.228,641.4Zm-.284-.363a.51.51,0,0,0,.444.035.723.723,0,0,0,.3-.522,1.36,1.36,0,0,0-.537-.882c-.052-.051-.1-.1-.154-.154a28.583,28.583,0,0,0-11.106-7.087c-.1-.033-.2-.08-.309-.126-.3-.131-.634-.28-.863-.174a.667.667,0,0,0-.3.444c-.17.548.19.7.8.9.084.026.165.051.241.078a27.723,27.723,0,0,1,10.593,6.727,3.531,3.531,0,0,0,.89.762Z" fill="#fff"></path>
          </g>
        </g>
        <g id="Path_68184" data-name="Path 68184">
          <g id="Path_68197" data-name="Path 68197">
            <path id="Path_68273" data-name="Path 68273" d="M235.845,641.7c-.509.068-.611.471-.611.912v6.134c0,.442.116.846.619.907.6.071.833-.347.87-.846a47.078,47.078,0,0,0,0-6.285C236.684,642.022,236.436,641.626,235.845,641.7Z" fill="#fff"></path>
          </g>
          <g id="Path_68198" data-name="Path 68198">
            <path id="Path_68274" data-name="Path 68274" d="M235.982,649.808a1.184,1.184,0,0,1-.146-.009c-.5-.061-.747-.413-.747-1.052v-6.134c0-.236,0-.956.737-1.056h0a.888.888,0,0,1,.692.165,1.093,1.093,0,0,1,.351.792,47.378,47.378,0,0,1,0,6.3,1.128,1.128,0,0,1-.354.809A.808.808,0,0,1,235.982,649.808Zm-.119-7.962c-.344.046-.484.268-.484.767v6.134c0,.493.148.721.492.763a.581.581,0,0,0,.46-.1.887.887,0,0,0,.25-.606,47.8,47.8,0,0,0,0-6.265.853.853,0,0,0-.245-.587.6.6,0,0,0-.471-.1Z" fill="#fff"></path>
          </g>
        </g>
        <g id="Path_68185" data-name="Path 68185">
          <g id="Path_68199" data-name="Path 68199">
            <path id="Path_68275" data-name="Path 68275" d="M210.528,649.664c.558-.028.725-.484.714-1-.009-.976,0-1.951,0-2.926h.041v-2.926c0-.5-.078-.979-.682-1.008s-.8.435-.812.924c-.041,2-.045,4-.048,6C209.739,649.245,209.962,649.693,210.528,649.664Z" fill="#fff"></path>
          </g>
          <g id="Path_68200" data-name="Path 68200">
            <path id="Path_68276" data-name="Path 68276" d="M210.474,649.81a.8.8,0,0,1-.576-.216,1.154,1.154,0,0,1-.3-.862c0-2.028.009-4.012.046-6.007a1.172,1.172,0,0,1,.313-.854.879.879,0,0,1,.651-.213c.821.041.821.82.821,1.153v3.071c-.044,1.479-.045,2.129-.039,2.779.013.712-.289,1.12-.853,1.147h-.061Zm.071-7.863a.545.545,0,0,0-.392.136.915.915,0,0,0-.22.647c-.039,1.993-.045,3.976-.048,6a.89.89,0,0,0,.213.653.6.6,0,0,0,.421.135h0c.393-.02.587-.306.576-.854-.006-.653,0-1.3,0-1.954v-1.12h.041v-2.781c0-.618-.142-.843-.544-.863Z" fill="#fff"></path>
          </g>
        </g>
      </g>
      <g id="Union_1" data-name="Union 1">
        <path id="Path_68277" data-name="Path 68277" d="M216.961,652.774a.563.563,0,0,1-.553-.533,7.211,7.211,0,0,1,5.133-6.992,4.312,4.312,0,0,1-1.649-3.474c0-2.237,1.571-4.094,3.475-4.094s3.476,1.857,3.476,4.094a4.311,4.311,0,0,1-1.648,3.474,7.209,7.209,0,0,1,5.131,6.992.56.56,0,0,1-.553.533A23.063,23.063,0,0,1,216.961,652.774Zm.584-1.066a24.418,24.418,0,0,0,5.822.826,24.951,24.951,0,0,0,5.861-.826,5.845,5.845,0,0,0-11.683,0Zm3.445-9.933a2.41,2.41,0,1,0,2.377-2.8,2.614,2.614,0,0,0-2.377,2.8Z" fill="#fff"></path>
        <path id="Path_68278" data-name="Path 68278" d="M223.367,653.982a23.32,23.32,0,0,1-6.455-.911.862.862,0,0,1-.8-.814,7.553,7.553,0,0,1,4.847-7.126,4.642,4.642,0,0,1-1.363-3.362c0-2.417,1.693-4.388,3.775-4.388s3.776,1.971,3.776,4.393a4.637,4.637,0,0,1-1.363,3.358,7.547,7.547,0,0,1,4.845,7.113.86.86,0,0,1-.8.827A23.319,23.319,0,0,1,223.367,653.982Zm0-16c-1.721,0-3.175,1.738-3.175,3.794a4.036,4.036,0,0,0,1.534,3.239l.455.357-.554.166a6.94,6.94,0,0,0-4.919,6.7.261.261,0,0,0,.256.237l.08.011a22.694,22.694,0,0,0,12.645,0l.081-.011a.259.259,0,0,0,.256-.246,6.94,6.94,0,0,0-4.918-6.692l-.553-.166.455-.357a4.032,4.032,0,0,0,1.533-3.233C226.543,639.718,225.088,637.98,223.367,637.98Zm.006,14.854a24.711,24.711,0,0,1-5.906-.836l-.23-.061.008-.239a6.145,6.145,0,0,1,12.283,0l.008.239L229.3,652A25.241,25.241,0,0,1,223.373,652.834Zm-5.516-1.355a24.169,24.169,0,0,0,5.516.755,24.721,24.721,0,0,0,5.542-.755,5.554,5.554,0,0,0-5.527-5.123c-.062,0-.123,0-.185,0A5.561,5.561,0,0,0,217.857,651.479Zm5.5-7.383a2.712,2.712,0,0,1-2.667-2.273l0-.026a2.926,2.926,0,0,1,2.65-3.121h.005a2.709,2.709,0,0,1,.461,5.383A2.8,2.8,0,0,1,223.361,644.1Zm-2.073-2.357a2.11,2.11,0,1,0,2.081-2.465h0A2.32,2.32,0,0,0,221.288,641.739Z" fill="#fff"></path>
      </g>
    </g>
  </g>
</svg>
