<?xml version="1.0" encoding="UTF-8"?>
<svg xmlns="http://www.w3.org/2000/svg" width="55" height="56" viewBox="0 0 55 56" fill="none">
  <g id="cargo-truck (1) 1">
    <path id="Vector" d="M52.0828 25.6227V27.5075C52.0828 27.9432 52.4377 28.2984 52.8728 28.2984H55V29.7908C55 30.753 54.216 31.5378 53.255 31.5378H52.2814C52.2814 30.5636 52.0193 29.6506 51.562 28.8653V26.7992C51.562 25.6677 51.1668 24.6484 50.4041 23.8133L46.8987 19.9749L52.2291 19.9747V18.8508C52.2291 18.6588 52.1845 18.5437 52.055 18.402L46.3626 12.1688C46.2187 12.0111 46.0857 11.9526 45.8722 11.9526H42.8273V15.959C42.2335 15.6659 41.5749 15.5138 40.8767 15.5138H40.3715V9.31647H46.0635C46.8409 9.31647 47.5104 9.61162 48.0349 10.186L54.3001 17.0466C54.7682 17.5591 54.9998 18.1565 54.9998 18.851V24.8318H52.8726C52.4377 24.8317 52.0828 25.1871 52.0828 25.6227ZM1 42.3862V45.6878C1 46.6417 1.77371 47.4231 2.72396 47.4344C2.72396 45.0822 4.25104 43.0866 6.36633 42.3862H1ZM28.249 22.6437V40.6352H1V22.6437C1 21.6827 1.78508 20.8966 2.74494 20.8966H26.5042C27.4639 20.8967 28.249 21.683 28.249 22.6437ZM8.07007 31.7141C8.41156 32.056 8.96522 32.056 9.3066 31.7141L15.571 25.4426C15.9125 25.1007 15.9125 24.5464 15.571 24.2047C15.2295 23.8628 14.6759 23.8628 14.3345 24.2047L8.07007 30.4762C7.72868 30.818 7.72868 31.3723 8.07007 31.7141ZM21.1785 29.8183C20.837 29.4764 20.2834 29.4764 19.942 29.8183L13.6775 36.0898C13.336 36.4317 13.336 36.986 13.6775 37.3278C14.019 37.6696 14.5727 37.6696 14.9141 37.3278L21.1785 31.0562C21.52 30.7143 21.52 30.1602 21.1785 29.8183ZM21.2633 24.1196C20.9218 23.7778 20.3682 23.7778 20.0268 24.1196L7.98568 36.1744C7.64419 36.5163 7.64419 37.0706 7.98568 37.4123C8.32717 37.7542 8.88083 37.7542 9.22221 37.4123L21.2633 25.3576C21.6048 25.0157 21.6048 24.4615 21.2633 24.1196ZM43.9266 32.9432C44.3947 33.4557 44.6263 34.0531 44.6263 34.7476V40.7285H42.4991C42.0639 40.7285 41.709 41.0838 41.709 41.5195V43.4044C41.709 43.8401 42.0639 44.1953 42.4991 44.1953H44.6263V45.6877C44.6263 46.6498 43.8423 47.4347 42.8813 47.4347H41.9077C41.9077 44.4992 39.5295 42.1183 36.5974 42.1183C33.6652 42.1183 31.287 44.4991 31.287 47.4347H29.9979C29.9979 40.0275 29.9979 32.6204 29.9979 25.2132H35.69C36.4673 25.2132 37.1367 25.5084 37.6613 26.0828L43.9266 32.9432ZM34.5489 38.6223C34.5489 38.1388 34.1573 37.7468 33.6744 37.7468H32.5437C32.0607 37.7468 31.6692 38.1388 31.6692 38.6223C31.6692 39.1058 32.0607 39.4978 32.5437 39.4978H33.6744C34.1573 39.4978 34.5489 39.1058 34.5489 38.6223ZM41.8555 34.7476C41.8555 34.5555 41.8109 34.4404 41.6815 34.2988L35.989 28.0654C35.8451 27.9079 35.7122 27.8492 35.4988 27.8492H32.4538V35.8716L41.8556 35.8715L41.8555 34.7476ZM22.5059 47.4346H28.2491V42.3862H18.8635C21.0367 43.1057 22.5059 45.1427 22.5059 47.4346ZM9.70296 42.3862C10.9351 42.7943 11.9676 43.6421 12.6148 44.7438C13.262 43.6421 14.2946 42.7944 15.5268 42.3862H9.70296ZM35.1848 14.6953V15.5138H38.6227V6.74703C38.6227 5.7864 37.8376 5 36.8778 5H13.1186C12.1588 5 11.3737 5.78608 11.3737 6.74703V11.1975H31.691C33.6159 11.1975 35.1848 12.7683 35.1848 14.6953ZM11.5956 47.4346C11.5956 49.4037 10.0012 51 8.03421 51C6.06736 51 4.47283 49.4038 4.47283 47.4346C4.47283 45.4654 6.06736 43.8692 8.03421 43.8692C10.0012 43.8692 11.5956 45.4654 11.5956 47.4346ZM9.40946 47.4346C9.40946 46.6736 8.79447 46.0579 8.03432 46.0579C7.27417 46.0579 6.65918 46.6736 6.65918 47.4346C6.65918 48.1956 7.27417 48.8113 8.03432 48.8113C8.79447 48.8112 9.40946 48.1956 9.40946 47.4346ZM20.7569 47.4346C20.7569 49.4037 19.1625 51 17.1955 51C15.2287 51 13.6341 49.4038 13.6341 47.4346C13.6341 45.4654 15.2286 43.8692 17.1955 43.8692C19.1624 43.8692 20.7569 45.4654 20.7569 47.4346ZM18.5707 47.4346C18.5707 46.6736 17.9557 46.0579 17.1955 46.0579C16.4354 46.0579 15.8204 46.6736 15.8204 47.4346C15.8204 48.1956 16.4354 48.8113 17.1955 48.8113C17.9557 48.8112 18.5707 48.1956 18.5707 47.4346ZM42.8483 18.1344C42.3237 17.5599 41.6542 17.2648 40.8769 17.2648H35.1848V23.4622H35.6901C36.3881 23.4622 37.0467 23.6144 37.6405 23.9074V19.901H40.6855C40.8989 19.901 41.0318 19.9596 41.1758 20.1172L46.8682 26.3505C46.9976 26.4922 47.0422 26.6073 47.0422 26.7993V27.9232L41.7118 27.9233L45.2173 31.7617C45.9798 32.5968 46.3752 33.6161 46.3752 34.7476V36.8137C46.8323 37.599 47.0946 38.5121 47.0946 39.4863H48.0681C49.0292 39.4863 49.8132 38.7014 49.8132 37.7392V36.2469H47.686C47.2508 36.2469 46.896 35.8916 46.896 35.456V33.571C46.896 33.1354 47.2509 32.78 47.686 32.78H49.8132V26.7992C49.8132 26.1047 49.5814 25.5073 49.1135 24.9948L42.8483 18.1344ZM40.1589 47.4346C40.1589 49.4037 38.5643 51 36.5975 51C34.6306 51 33.0361 49.4038 33.0361 47.4346C33.0361 45.4655 34.6305 43.8692 36.5975 43.8692C38.5644 43.8692 40.1589 45.4655 40.1589 47.4346ZM37.9726 47.4346C37.9726 46.6736 37.3575 46.0579 36.5975 46.0579C35.8374 46.0579 35.2223 46.6736 35.2223 47.4346C35.2223 48.1956 35.8373 48.8113 36.5975 48.8113C37.3576 48.8112 37.9726 48.1956 37.9726 47.4346ZM33.4359 23.4621V14.6953C33.4359 13.7347 32.6508 12.9483 31.6909 12.9483H7.93179C6.97192 12.9483 6.18684 13.7344 6.18684 14.6953V19.1458H26.5042C28.4292 19.1458 29.998 20.7166 29.998 22.6437V23.4621H33.4359Z" fill="white"></path>
  </g>
</svg>
