<svg xmlns="http://www.w3.org/2000/svg" width="57.155" height="39.076" viewBox="0 0 57.155 39.076">
  <g id="Group_123750" data-name="Group 123750" transform="translate(-179.77 -1190.485)">
    <g id="Group_123749" data-name="Group 123749">
      <path id="Icon_ionic-md-eye" data-name="Icon ionic-md-eye" d="M29.75,7.383A29.572,29.572,0,0,0,2.25,25.921a29.666,29.666,0,0,0,55,0A29.572,29.572,0,0,0,29.75,7.383Zm0,30.9a12.363,12.363,0,1,1,12.5-12.363A12.465,12.465,0,0,1,29.75,38.283Zm0-19.778a7.416,7.416,0,1,0,7.5,7.415A7.482,7.482,0,0,0,29.75,18.506Z" transform="translate(178.598 1184.103)" fill="none" stroke="#fff" stroke-width="2"/>
    </g>
  </g>
</svg>
