<svg xmlns="http://www.w3.org/2000/svg" xmlns:xlink="http://www.w3.org/1999/xlink" width="402.319" height="335.151" viewBox="0 0 402.319 335.151">
  <defs>
    <linearGradient id="linear-gradient" x1="0.5" x2="0.5" y2="1" gradientUnits="objectBoundingBox">
      <stop offset="0" stop-color="#ffe6d9"/>
      <stop offset="1" stop-color="#ffc7bf"/>
    </linearGradient>
    <linearGradient id="linear-gradient-2" x1="0.5" y1="1" x2="0.5" gradientUnits="objectBoundingBox">
      <stop offset="0" stop-color="#ff895d"/>
      <stop offset="1" stop-color="#ffc8ae"/>
    </linearGradient>
    <linearGradient id="linear-gradient-3" x1="0.5" x2="0.5" y2="1" gradientUnits="objectBoundingBox">
      <stop offset="0" stop-color="#f2f2f2"/>
      <stop offset="1" stop-color="#fafafa"/>
    </linearGradient>
  </defs>
  <g id="Group_123890" data-name="Group 123890" transform="translate(0)">
    <ellipse id="Ellipse_1247" data-name="Ellipse 1247" cx="152.503" cy="9.092" rx="152.503" ry="9.092" transform="translate(305.006 335.151) rotate(180)" opacity="0.62" fill="url(#linear-gradient)" style="mix-blend-mode: multiply;isolation: isolate"/>
    <g id="Group_123882" data-name="Group 123882" transform="translate(3.744 64.009)">
      <g id="Group_123879" data-name="Group 123879">
        <path id="Path_68388" data-name="Path 68388" d="M151.578,230.414v31.2A5.436,5.436,0,0,0,157,267.042H443.669a5.434,5.434,0,0,0,5.424-5.423v-31.2Z" transform="translate(-151.576 -52.638)" fill="#f0f0f0"/>
        <path id="Path_68389" data-name="Path 68389" d="M449.094,118.216a5.437,5.437,0,0,0-5.424-5.424H157a5.44,5.44,0,0,0-5.426,5.424V290.568H449.094Z" transform="translate(-151.577 -112.792)" fill="#414042"/>
        <rect id="Rectangle_8043" data-name="Rectangle 8043" width="102.332" height="31.417" transform="translate(98.222 214.404)" fill="#d6d6d6"/>
        <rect id="Rectangle_8044" data-name="Rectangle 8044" width="150.11" height="14.708" transform="translate(73.63 245.823)" fill="#f0f0f0"/>
        <rect id="Rectangle_8045" data-name="Rectangle 8045" width="102.332" height="11.355" transform="translate(98.222 214.404)" fill="#bdbdbd"/>
        <rect id="Rectangle_8046" data-name="Rectangle 8046" width="266.813" height="146.401" transform="translate(15.382 15.476)" fill="url(#linear-gradient-2)"/>
      </g>
      <g id="Group_123880" data-name="Group 123880" transform="translate(84.925 45.21)">
        <path id="Path_68390" data-name="Path 68390" d="M240.859,142.031,224.588,158.3l-16.271-16.272-6.509,6.509,16.271,16.273-16.271,16.27,6.509,6.509,16.271-16.27,16.271,16.27,6.509-6.509L231.1,164.813l16.271-16.273Z" transform="translate(-201.808 -142.031)" fill="#414042"/>
        <path id="Path_68391" data-name="Path 68391" d="M309.356,148.54l-6.509-6.509L286.576,158.3,270.3,142.031,263.8,148.54l16.271,16.273L263.8,181.083l6.509,6.509,16.271-16.27,16.271,16.27,6.509-6.509-16.271-16.27Z" transform="translate(-181.689 -142.031)" fill="#414042"/>
      </g>
      <g id="Group_123881" data-name="Group 123881" transform="translate(109.439 115.997)">
        <path id="Path_68392" data-name="Path 68392" d="M294.491,210.98c-34.432-23.776-69.31-.241-69.66,0l-4.515-6.541c.392-.272,39.8-26.856,78.691,0Z" transform="translate(-220.315 -192.443)" fill="#414042"/>
      </g>
    </g>
    <g id="Group_123886" data-name="Group 123886" transform="translate(255.711)">
      <path id="Path_68393" data-name="Path 68393" d="M458.847,70.442H324.331a6.046,6.046,0,0,0-6.046,6.046v86.874a6.046,6.046,0,0,0,6.046,6.046h15.575L324.58,198.459,376.3,169.407h82.546a6.046,6.046,0,0,0,6.046-6.046V76.488A6.046,6.046,0,0,0,458.847,70.442Z" transform="translate(-318.285 -70.442)" fill="url(#linear-gradient-3)"/>
      <g id="Group_123885" data-name="Group 123885" transform="translate(21.94 17.017)">
        <g id="Group_123883" data-name="Group 123883">
          <path id="Path_68394" data-name="Path 68394" d="M352.651,120.231a1.492,1.492,0,0,1-1.474-1.472v-6.6h-16.9a1.489,1.489,0,0,1-1.472-1.472v-3.872a2.486,2.486,0,0,1,.354-1.335q.354-.574.845-1.227l16.688-20.829a2.972,2.972,0,0,1,2.234-1.363h4.144a1.489,1.489,0,0,1,1.474,1.471v21.811h4.688a1.492,1.492,0,0,1,1.472,1.472v3.872a1.489,1.489,0,0,1-1.472,1.472h-4.688v6.6a1.492,1.492,0,0,1-1.474,1.472Zm-1.474-14.886V93.675l-9.326,11.67Z" transform="translate(-332.801 -81.516)" fill="#414042"/>
          <path id="Path_68395" data-name="Path 68395" d="M386.487,96.48c.039.689.056,1.452.056,2.29v5.125c0,.837-.017,1.6-.056,2.29a25.537,25.537,0,0,1-.954,5.861,12.4,12.4,0,0,1-2.509,4.69,11.465,11.465,0,0,1-4.469,3.109,20.914,20.914,0,0,1-13.5,0,11.471,11.471,0,0,1-4.444-3.109,12.384,12.384,0,0,1-2.509-4.69,25.376,25.376,0,0,1-.954-5.861q-.111-2.072-.109-4.717t.109-4.717a26.212,26.212,0,0,1,.954-5.916,12.6,12.6,0,0,1,2.509-4.77,11.846,11.846,0,0,1,4.444-3.191,17.147,17.147,0,0,1,6.762-1.173,17.944,17.944,0,0,1,6.733,1.118,11.465,11.465,0,0,1,4.469,3.109,12.409,12.409,0,0,1,2.509,4.688A25.564,25.564,0,0,1,386.487,96.48Zm-21.975,9.433a11.348,11.348,0,0,0,1.883,6.079q1.607,2.156,5.426,2.155t5.423-2.155a11.349,11.349,0,0,0,1.883-6.079q.107-2.07.109-4.58t-.109-4.583a11.348,11.348,0,0,0-1.883-6.077q-1.607-2.156-5.423-2.155T366.4,90.673a11.347,11.347,0,0,0-1.883,6.077q-.111,2.074-.109,4.583T364.513,105.912Z" transform="translate(-320.402 -81.701)" fill="#414042"/>
          <path id="Path_68396" data-name="Path 68396" d="M399.513,120.231a1.492,1.492,0,0,1-1.474-1.472v-6.6h-16.9a1.489,1.489,0,0,1-1.474-1.472v-3.872a2.486,2.486,0,0,1,.354-1.335q.356-.574.848-1.227L397.55,83.426a2.98,2.98,0,0,1,2.235-1.363h4.144a1.489,1.489,0,0,1,1.472,1.471v21.811h4.691a1.487,1.487,0,0,1,1.469,1.472v3.872a1.484,1.484,0,0,1-1.469,1.472H405.4v6.6a1.492,1.492,0,0,1-1.472,1.472Zm-1.474-14.886V93.675l-9.322,11.67Z" transform="translate(-308.834 -81.516)" fill="#414042"/>
        </g>
        <g id="Group_123884" data-name="Group 123884" transform="translate(13.591 48.093)">
          <path id="Path_68397" data-name="Path 68397" d="M350.992,126.682a.55.55,0,0,1,.4.172.54.54,0,0,1,.172.4v.768a.549.549,0,0,1-.172.407.555.555,0,0,1-.4.171h-8.623a.578.578,0,0,1-.576-.577V114.24a.575.575,0,0,1,.576-.577h8.452a.581.581,0,0,1,.574.577v.768a.586.586,0,0,1-.574.576h-7v4.5h6.532a.581.581,0,0,1,.576.576v.768a.586.586,0,0,1-.576.577h-6.532v4.673Z" transform="translate(-341.793 -113.448)" fill="#414042"/>
          <path id="Path_68398" data-name="Path 68398" d="M357.3,113.663a7.375,7.375,0,0,1,1.975.255,4.756,4.756,0,0,1,1.632.79,3.823,3.823,0,0,1,1.122,1.366,4.432,4.432,0,0,1,.417,2.006,4.134,4.134,0,0,1-.866,2.754,4.681,4.681,0,0,1-2.208,1.451L362.6,127.9a.5.5,0,0,1,.065.234.452.452,0,0,1-.139.331.443.443,0,0,1-.329.139h-.919a.829.829,0,0,1-.629-.215,2.026,2.026,0,0,1-.289-.363l-3.094-5.443h-3.673v5.443a.578.578,0,0,1-.576.577h-.874a.581.581,0,0,1-.576-.577V114.24a.578.578,0,0,1,.576-.577Zm-3.714,7H357.2a4.025,4.025,0,0,0,2.379-.608,2.267,2.267,0,0,0,.845-1.975,2.147,2.147,0,0,0-.845-1.93,4.235,4.235,0,0,0-2.379-.567h-3.608Z" transform="translate(-336.796 -113.448)" fill="#414042"/>
          <path id="Path_68399" data-name="Path 68399" d="M367.909,113.663a7.365,7.365,0,0,1,1.974.255,4.73,4.73,0,0,1,1.632.79,3.843,3.843,0,0,1,1.123,1.366,4.453,4.453,0,0,1,.416,2.006,4.133,4.133,0,0,1-.865,2.754,4.681,4.681,0,0,1-2.208,1.451L373.2,127.9a.52.52,0,0,1,.065.234.458.458,0,0,1-.139.331.449.449,0,0,1-.331.139h-.917a.827.827,0,0,1-.629-.215,2.047,2.047,0,0,1-.29-.363l-3.094-5.443H364.2v5.443a.581.581,0,0,1-.576.577h-.874a.578.578,0,0,1-.576-.577V114.24a.575.575,0,0,1,.576-.577Zm-3.714,7H367.8a4.03,4.03,0,0,0,2.38-.608,2.267,2.267,0,0,0,.843-1.975,2.147,2.147,0,0,0-.843-1.93,4.241,4.241,0,0,0-2.38-.567H364.2Z" transform="translate(-331.372 -113.448)" fill="#414042"/>
          <path id="Path_68400" data-name="Path 68400" d="M372.416,119.307a6.743,6.743,0,0,1,.417-2.252,5.249,5.249,0,0,1,1.141-1.835,5.438,5.438,0,0,1,1.836-1.239,7.01,7.01,0,0,1,4.992,0,5.423,5.423,0,0,1,1.836,1.239,5.274,5.274,0,0,1,1.143,1.835,6.743,6.743,0,0,1,.416,2.252q.066,1.9,0,3.8a7.112,7.112,0,0,1-.437,2.252,5.41,5.41,0,0,1-1.143,1.847,5.272,5.272,0,0,1-1.824,1.238,7.114,7.114,0,0,1-4.974,0A5.286,5.286,0,0,1,374,127.2a5.411,5.411,0,0,1-1.143-1.847,7.156,7.156,0,0,1-.437-2.252Q372.355,121.205,372.416,119.307Zm9.753.107a5.515,5.515,0,0,0-.329-1.75,3.246,3.246,0,0,0-2.006-1.975,4.876,4.876,0,0,0-3.052,0,3.354,3.354,0,0,0-1.208.736,3.481,3.481,0,0,0-.812,1.239,5.028,5.028,0,0,0-.319,1.75c-.03.639-.044,1.236-.044,1.791s.014,1.153.044,1.793a5.028,5.028,0,0,0,.319,1.75,3.467,3.467,0,0,0,.812,1.239,3.332,3.332,0,0,0,1.208.736,4.876,4.876,0,0,0,3.052,0,3.246,3.246,0,0,0,2.006-1.975,5.515,5.515,0,0,0,.329-1.75q.045-.959.045-1.793T382.17,119.414Z" transform="translate(-326.147 -113.521)" fill="#414042"/>
          <path id="Path_68401" data-name="Path 68401" d="M389.415,113.663a7.372,7.372,0,0,1,1.974.255,4.744,4.744,0,0,1,1.632.79,3.842,3.842,0,0,1,1.123,1.366,4.453,4.453,0,0,1,.416,2.006,4.141,4.141,0,0,1-.865,2.754,4.688,4.688,0,0,1-2.208,1.451l3.221,5.613a.52.52,0,0,1,.065.234.458.458,0,0,1-.139.331.449.449,0,0,1-.331.139h-.917a.825.825,0,0,1-.629-.215,2.043,2.043,0,0,1-.29-.363l-3.094-5.443H385.7v5.443a.581.581,0,0,1-.576.577h-.874a.578.578,0,0,1-.576-.577V114.24a.575.575,0,0,1,.576-.577Zm-3.714,7h3.606a4.033,4.033,0,0,0,2.38-.608,2.267,2.267,0,0,0,.843-1.975,2.147,2.147,0,0,0-.843-1.93,4.244,4.244,0,0,0-2.38-.567H385.7Z" transform="translate(-320.373 -113.448)" fill="#414042"/>
        </g>
      </g>
    </g>
  </g>
</svg>
