<svg width="336" height="79" viewBox="0 0 336 79" fill="none" xmlns="http://www.w3.org/2000/svg">
<path d="M9.80002 8.69998H39.4C42 8.69998 44.2 9.49998 46 11.1C47.8 12.7 48.7 14.6 48.7 16.9V51H39.8V36.8H9.30002V51H0.400024V16.9C0.400024 14.6 1.30002 12.7 3.10002 11.1C5.00002 9.49998 7.20002 8.69998 9.80002 8.69998ZM9.30002 29H39.8V16.8C39.8 16.5 39.6 16.4 39.3 16.4H9.80002C9.50002 16.4 9.30002 16.5 9.30002 16.8V29Z" fill="#282827"/>
<path d="M115.3 16.9V28.3C115.3 30.5 114.4 32.5 112.6 34.1C110.8 35.7 108.6 36.5 106 36.5H103.4L115.4 49V51H105.7L91.8 36.5H76.2H76V51H67V8.79999H105.9C108.5 8.79999 110.7 9.59998 112.5 11.2C114.4 12.7 115.3 14.7 115.3 16.9ZM76.4 28.7H106C106.3 28.7 106.5 28.6 106.5 28.3V16.9C106.5 16.6 106.3 16.5 106 16.5H76.4C76.1 16.5 75.9 16.6 75.9 16.9V28.3C75.9 28.6 76 28.7 76.4 28.7Z" fill="#282827"/>
<path d="M181.3 16.4H142.5C142.2 16.4 142 16.5 142 16.8V42.8C142 43.1 142.2 43.2 142.5 43.2H181.3V51H142.5C139.9 51 137.7 50.2 135.9 48.6C134.1 47 133.2 45.1 133.2 42.8V16.8C133.2 14.5 134.1 12.6 135.9 11C137.7 9.39999 139.9 8.59999 142.5 8.59999H181.3V16.4Z" fill="#282827"/>
<path d="M326.2 39.7V8.69998H335.1V51H325.4L295.6 20V51H286.8V8.69998H296.5L326.2 39.7Z" fill="#282827"/>
<path d="M234.5 0.399994L273.4 8.69999V50.8L234.5 56.8V0.399994Z" fill="#E95E26"/>
<path d="M195.6 8.69999V50.8L234.5 56.8V0.399994L195.6 8.69999Z" fill="#E04427"/>
<path d="M204.4 50V7.09999H204.3C203.1 7.39999 202 7.69999 201 7.89999V49.8C202.1 49.9 203.2 49.9 204.4 50Z" fill="#E95E26"/>
<path d="M212.6 51.3V6C211.4 6.1 210.3 6.3 209.1 6.4V50.6C210.3 50.8 211.5 51 212.6 51.3Z" fill="#E95E26"/>
<path d="M220.9 53V4.79999C219.7 4.99999 218.6 5.19999 217.4 5.29999V52.5C218.6 52.8 219.7 52.9 220.9 53Z" fill="#E95E26"/>
<path d="M229.2 53.8V2.89999C228.1 3.29999 226.9 3.59999 225.7 3.89999V53.3C226.8 53.4 228 53.5 229.2 53.8Z" fill="#E95E26"/>
<path d="M11.1 72.9C11 74.3 10.5 75.5 9.50001 76.3C8.50001 77.1 7.30001 77.5 5.70001 77.5C4.00001 77.5 2.60001 76.9 1.70001 75.8C0.800012 74.7 0.200012 73.1 0.200012 71.1V70.3C0.200012 69 0.400013 67.9 0.900013 66.9C1.40001 65.9 2.00001 65.2 2.80001 64.7C3.60001 64.2 4.60001 63.9 5.70001 63.9C7.20001 63.9 8.50001 64.3 9.40001 65.1C10.3 65.9 10.9 67.1 11 68.6H8.30001C8.20001 67.7 8.00001 67.1 7.60001 66.7C7.20001 66.3 6.60001 66.1 5.70001 66.1C4.80001 66.1 4.10001 66.4 3.60001 67.1C3.10001 67.8 2.90001 68.8 2.90001 70.2V71.2C2.90001 72.6 3.10001 73.7 3.60001 74.4C4.10001 75.1 4.70001 75.4 5.70001 75.4C6.50001 75.4 7.20001 75.2 7.60001 74.8C8.00001 74.4 8.30001 73.8 8.30001 73H11.1V72.9Z" fill="#303030"/>
<path d="M27.6 71C27.6 72.3 27.4 73.5 26.9 74.5C26.4 75.5 25.8 76.3 24.9 76.8C24 77.3 23 77.6 21.9 77.6C20.8 77.6 19.8 77.3 18.9 76.8C18 76.3 17.4 75.5 16.9 74.5C16.4 73.5 16.2 72.4 16.2 71.1V70.4C16.2 69.1 16.4 67.9 16.9 66.9C17.4 65.9 18 65.1 18.9 64.6C19.8 64.1 20.8 63.8 21.9 63.8C23 63.8 24 64.1 24.9 64.6C25.8 65.1 26.4 65.9 26.9 66.9C27.4 67.9 27.6 69.1 27.6 70.4V71ZM24.8 70.4C24.8 69 24.5 67.9 24 67.2C23.5 66.5 22.8 66.1 21.9 66.1C21 66.1 20.3 66.5 19.8 67.2C19.3 67.9 19 69 19 70.4V71.1C19 72.5 19.2 73.5 19.8 74.3C20.3 75.1 21 75.4 22 75.4C22.9 75.4 23.6 75 24.1 74.3C24.6 73.6 24.8 72.5 24.9 71.1V70.4H24.8Z" fill="#303030"/>
<path d="M44.2 77.4H41.5L36.2 68.6V77.4H33.5V64H36.2L41.6 72.8V64H44.3V77.4H44.2Z" fill="#303030"/>
<path d="M60.1 66.3H56V77.4H53.3V66.3H49.3V64H60.2V66.3H60.1Z" fill="#303030"/>
<path d="M71.9 74.6H67.1L66.2 77.3H63.3L68.3 64H70.8L75.8 77.3H72.9L71.9 74.6ZM67.8 72.4H71.1L69.4 67.4L67.8 72.4Z" fill="#303030"/>
<path d="M83.6 77.4H80.9V64H83.6V77.4Z" fill="#303030"/>
<path d="M100.8 77.4H98L92.7 68.6V77.4H90V64H92.7L98.1 72.8V64H100.8V77.4Z" fill="#303030"/>
<path d="M115 71.6H109.7V75.2H115.9V77.4H107V64H115.9V66.2H109.7V69.4H115V71.6Z" fill="#303030"/>
<path d="M126.2 72.5H124V77.4H121.3V64H126.3C127.9 64 129.1 64.4 129.9 65.1C130.8 65.8 131.2 66.8 131.2 68.1C131.2 69 131 69.8 130.6 70.4C130.2 71 129.6 71.5 128.8 71.9L131.7 77.3V77.4H128.8L126.2 72.5ZM124 70.3H126.2C126.9 70.3 127.4 70.1 127.8 69.8C128.2 69.5 128.4 69 128.4 68.3C128.4 67.7 128.2 67.2 127.9 66.8C127.5 66.4 127 66.3 126.3 66.3H124V70.3Z" fill="#303030"/>
<path d="M158 75.2H153.2L152.3 77.9H149.4L154.4 64.6H156.9L161.9 77.9H159L158 75.2ZM153.9 73H157.2L155.5 68L153.9 73Z" fill="#303030"/>
<path d="M171.4 74.5C171.4 74 171.2 73.6 170.9 73.3C170.5 73 169.9 72.7 168.9 72.4C167.9 72.1 167.2 71.8 166.6 71.5C165.1 70.7 164.3 69.6 164.3 68.2C164.3 67.5 164.5 66.8 164.9 66.3C165.3 65.7 165.9 65.3 166.6 65C167.4 64.7 168.2 64.5 169.2 64.5C170.2 64.5 171 64.7 171.7 65C172.4 65.3 173 65.8 173.4 66.5C173.8 67.2 174 67.8 174 68.6H171.3C171.3 68 171.1 67.5 170.7 67.2C170.3 66.9 169.8 66.7 169.1 66.7C168.4 66.7 167.9 66.8 167.5 67.1C167.1 67.4 166.9 67.8 166.9 68.2C166.9 68.6 167.1 69 167.6 69.3C168.1 69.6 168.7 69.9 169.5 70.1C171.1 70.6 172.2 71.2 172.9 71.8C173.6 72.5 174 73.4 174 74.4C174 75.6 173.6 76.5 172.7 77.1C171.8 77.7 170.7 78.1 169.2 78.1C168.2 78.1 167.2 77.9 166.4 77.5C165.6 77.1 164.9 76.6 164.5 76C164.1 75.3 163.8 74.6 163.8 73.7H166.6C166.6 75.2 167.5 75.9 169.2 75.9C169.9 75.9 170.4 75.8 170.7 75.5C171.2 75.3 171.4 74.9 171.4 74.5Z" fill="#303030"/>
<path d="M200.1 75.2H195.3L194.4 77.9H191.5L196.5 64.6H199L204 77.9H201L200.1 75.2ZM196 73H199.3L197.6 68L196 73Z" fill="#303030"/>
<path d="M228.4 74.6C228.4 74.1 228.2 73.7 227.9 73.4C227.5 73.1 226.9 72.8 225.9 72.5C224.9 72.2 224.2 71.9 223.6 71.6C222.1 70.8 221.3 69.7 221.3 68.3C221.3 67.6 221.5 66.9 221.9 66.4C222.3 65.8 222.9 65.4 223.6 65.1C224.4 64.8 225.2 64.6 226.2 64.6C227.2 64.6 228 64.8 228.7 65.1C229.4 65.4 230 65.9 230.4 66.6C230.8 67.3 231 67.9 231 68.7H228.3C228.3 68.1 228.1 67.6 227.7 67.3C227.3 67 226.8 66.8 226.1 66.8C225.4 66.8 224.9 66.9 224.5 67.2C224.1 67.5 223.9 67.9 223.9 68.3C223.9 68.7 224.1 69.1 224.6 69.4C225.1 69.7 225.7 70 226.5 70.2C228.1 70.7 229.2 71.3 229.9 71.9C230.6 72.6 231 73.5 231 74.5C231 75.7 230.6 76.6 229.7 77.2C228.8 77.8 227.7 78.2 226.2 78.2C225.2 78.2 224.2 78 223.4 77.6C222.6 77.2 221.9 76.7 221.5 76.1C221.1 75.4 220.8 74.7 220.8 73.8H223.6C223.6 75.3 224.5 76 226.2 76C226.9 76 227.4 75.9 227.7 75.6C228.3 75.5 228.4 75.1 228.4 74.6Z" fill="#303030"/>
<path d="M247.8 71.8C247.8 73.1 247.6 74.3 247.1 75.3C246.6 76.3 246 77.1 245.1 77.6C244.2 78.1 243.2 78.4 242.1 78.4C241 78.4 240 78.1 239.1 77.6C238.2 77.1 237.6 76.3 237.1 75.3C236.6 74.3 236.4 73.2 236.4 71.9V71.2C236.4 69.9 236.6 68.7 237.1 67.7C237.6 66.7 238.2 65.9 239.1 65.4C240 64.9 241 64.6 242.1 64.6C243.2 64.6 244.2 64.9 245.1 65.4C246 65.9 246.6 66.7 247.1 67.7C247.6 68.7 247.8 69.9 247.8 71.2V71.8ZM245 71.2C245 69.8 244.7 68.7 244.2 68C243.7 67.3 243 66.9 242.1 66.9C241.2 66.9 240.5 67.3 240 68C239.5 68.7 239.2 69.8 239.2 71.2V71.9C239.2 73.3 239.4 74.3 240 75.1C240.5 75.9 241.2 76.2 242.2 76.2C243.1 76.2 243.8 75.8 244.3 75.1C244.8 74.4 245 73.3 245.1 71.9V71.2H245Z" fill="#303030"/>
<path d="M256.3 75.9H262.1V78.1H253.5V64.8H256.2V75.9H256.3Z" fill="#303030"/>
<path d="M277.3 64.8V73.6C277.3 75.1 276.8 76.2 275.9 77.1C275 78 273.7 78.4 272.2 78.4C270.6 78.4 269.4 78 268.5 77.2C267.6 76.4 267.1 75.2 267.1 73.8V64.9H269.8V73.7C269.8 74.6 270 75.2 270.4 75.6C270.8 76 271.4 76.2 272.1 76.2C273.6 76.2 274.4 75.4 274.5 73.8V64.9H277.3V64.8Z" fill="#303030"/>
<path d="M293.3 67H289.2V78.1H286.5V67H282.5V64.8H293.4V67H293.3Z" fill="#303030"/>
<path d="M301.6 78.1H298.9V64.8H301.6V78.1Z" fill="#303030"/>
<path d="M318.8 71.8C318.8 73.1 318.6 74.3 318.1 75.3C317.6 76.3 317 77.1 316.1 77.6C315.2 78.1 314.2 78.4 313.1 78.4C312 78.4 311 78.1 310.1 77.6C309.2 77.1 308.6 76.3 308.1 75.3C307.6 74.3 307.4 73.2 307.4 71.9V71.2C307.4 69.9 307.6 68.7 308.1 67.7C308.6 66.7 309.2 65.9 310.1 65.4C311 64.9 312 64.6 313.1 64.6C314.2 64.6 315.2 64.9 316.1 65.4C317 65.9 317.6 66.7 318.1 67.7C318.6 68.7 318.8 69.9 318.8 71.2V71.8ZM316 71.2C316 69.8 315.7 68.7 315.2 68C314.7 67.3 314 66.9 313.1 66.9C312.2 66.9 311.5 67.3 311 68C310.5 68.7 310.2 69.8 310.2 71.2V71.9C310.2 73.3 310.4 74.3 311 75.1C311.5 75.9 312.2 76.2 313.2 76.2C314.1 76.2 314.8 75.8 315.3 75.1C315.8 74.4 316 73.3 316.1 71.9V71.2H316Z" fill="#303030"/>
<path d="M335.4 78.1H332.7L327.4 69.3V78.1H324.7V64.8H327.4L332.8 73.6V64.8H335.5V78.1H335.4Z" fill="#303030"/>
</svg>
